<?xml version="1.0" encoding="utf-8" standalone="no"?>
<!DOCTYPE svg PUBLIC "-//W3C//DTD SVG 1.1//EN"
  "http://www.w3.org/Graphics/SVG/1.1/DTD/svg11.dtd">
<svg xmlns:xlink="http://www.w3.org/1999/xlink" width="356.875586pt" height="348.252526pt" viewBox="0 0 356.875586 348.252526" xmlns="http://www.w3.org/2000/svg" version="1.1">
 <metadata>
  <rdf:RDF xmlns:dc="http://purl.org/dc/elements/1.1/" xmlns:cc="http://creativecommons.org/ns#" xmlns:rdf="http://www.w3.org/1999/02/22-rdf-syntax-ns#">
   <cc:Work>
    <dc:type rdf:resource="http://purl.org/dc/dcmitype/StillImage"/>
    <dc:date>2023-04-13T06:25:17.571795</dc:date>
    <dc:format>image/svg+xml</dc:format>
    <dc:creator>
     <cc:Agent>
      <dc:title>Matplotlib v3.6.3, https://matplotlib.org/</dc:title>
     </cc:Agent>
    </dc:creator>
   </cc:Work>
  </rdf:RDF>
 </metadata>
 <defs>
  <style type="text/css">*{stroke-linejoin: round; stroke-linecap: butt}</style>
 </defs>
 <g id="figure_1">
  <g id="patch_1">
   <path d="M 0 348.252526 
L 356.875586 348.252526 
L 356.875586 0 
L 0 0 
z
" style="fill: #ffffff"/>
  </g>
  <g id="patch_2">
   <path d="M 7.2 339.84 
L 339.84 339.84 
L 339.84 7.2 
L 7.2 7.2 
z
" style="fill: #ffffff"/>
  </g>
  <g id="pane3d_1">
   <g id="patch_3">
    <path d="M 32.316614 257.821636 
L 142.165206 165.744369 
L 140.638205 32.952489 
L 25.532792 116.951176 
" style="fill: #f2f2f2; opacity: 0.5; stroke: #f2f2f2; stroke-linejoin: miter"/>
   </g>
  </g>
  <g id="pane3d_2">
   <g id="patch_4">
    <path d="M 142.165206 165.744369 
L 318.433001 216.978458 
L 324.723377 79.612714 
L 140.638205 32.952489 
" style="fill: #e6e6e6; opacity: 0.5; stroke: #e6e6e6; stroke-linejoin: miter"/>
   </g>
  </g>
  <g id="pane3d_3">
   <g id="patch_5">
    <path d="M 32.316614 257.821636 
L 219.169086 318.847653 
L 318.433001 216.978458 
L 142.165206 165.744369 
" style="fill: #ececec; opacity: 0.5; stroke: #ececec; stroke-linejoin: miter"/>
   </g>
  </g>
  <g id="axis3d_1">
   <g id="line2d_1">
    <path d="M 32.316614 257.821636 
L 219.169086 318.847653 
" style="fill: none; stroke: #000000; stroke-width: 0.8; stroke-linecap: square"/>
   </g>
   <g id="text_1">
    <!-- Fertilizer -->
    <g transform="translate(85.61048 318.655737) rotate(-341.912962) scale(0.1 -0.1)">
     <defs>
      <path id="DejaVuSans-46" d="M 628 4666 
L 3309 4666 
L 3309 4134 
L 1259 4134 
L 1259 2759 
L 3109 2759 
L 3109 2228 
L 1259 2228 
L 1259 0 
L 628 0 
L 628 4666 
z
" transform="scale(0.015625)"/>
      <path id="DejaVuSans-65" d="M 3597 1894 
L 3597 1613 
L 953 1613 
Q 991 1019 1311 708 
Q 1631 397 2203 397 
Q 2534 397 2845 478 
Q 3156 559 3463 722 
L 3463 178 
Q 3153 47 2828 -22 
Q 2503 -91 2169 -91 
Q 1331 -91 842 396 
Q 353 884 353 1716 
Q 353 2575 817 3079 
Q 1281 3584 2069 3584 
Q 2775 3584 3186 3129 
Q 3597 2675 3597 1894 
z
M 3022 2063 
Q 3016 2534 2758 2815 
Q 2500 3097 2075 3097 
Q 1594 3097 1305 2825 
Q 1016 2553 972 2059 
L 3022 2063 
z
" transform="scale(0.015625)"/>
      <path id="DejaVuSans-72" d="M 2631 2963 
Q 2534 3019 2420 3045 
Q 2306 3072 2169 3072 
Q 1681 3072 1420 2755 
Q 1159 2438 1159 1844 
L 1159 0 
L 581 0 
L 581 3500 
L 1159 3500 
L 1159 2956 
Q 1341 3275 1631 3429 
Q 1922 3584 2338 3584 
Q 2397 3584 2469 3576 
Q 2541 3569 2628 3553 
L 2631 2963 
z
" transform="scale(0.015625)"/>
      <path id="DejaVuSans-74" d="M 1172 4494 
L 1172 3500 
L 2356 3500 
L 2356 3053 
L 1172 3053 
L 1172 1153 
Q 1172 725 1289 603 
Q 1406 481 1766 481 
L 2356 481 
L 2356 0 
L 1766 0 
Q 1100 0 847 248 
Q 594 497 594 1153 
L 594 3053 
L 172 3053 
L 172 3500 
L 594 3500 
L 594 4494 
L 1172 4494 
z
" transform="scale(0.015625)"/>
      <path id="DejaVuSans-69" d="M 603 3500 
L 1178 3500 
L 1178 0 
L 603 0 
L 603 3500 
z
M 603 4863 
L 1178 4863 
L 1178 4134 
L 603 4134 
L 603 4863 
z
" transform="scale(0.015625)"/>
      <path id="DejaVuSans-6c" d="M 603 4863 
L 1178 4863 
L 1178 0 
L 603 0 
L 603 4863 
z
" transform="scale(0.015625)"/>
      <path id="DejaVuSans-7a" d="M 353 3500 
L 3084 3500 
L 3084 2975 
L 922 459 
L 3084 459 
L 3084 0 
L 275 0 
L 275 525 
L 2438 3041 
L 353 3041 
L 353 3500 
z
" transform="scale(0.015625)"/>
     </defs>
     <use xlink:href="#DejaVuSans-46"/>
     <use xlink:href="#DejaVuSans-65" x="52.019531"/>
     <use xlink:href="#DejaVuSans-72" x="113.542969"/>
     <use xlink:href="#DejaVuSans-74" x="154.65625"/>
     <use xlink:href="#DejaVuSans-69" x="193.865234"/>
     <use xlink:href="#DejaVuSans-6c" x="221.648438"/>
     <use xlink:href="#DejaVuSans-69" x="249.431641"/>
     <use xlink:href="#DejaVuSans-7a" x="277.214844"/>
     <use xlink:href="#DejaVuSans-65" x="329.705078"/>
     <use xlink:href="#DejaVuSans-72" x="391.228516"/>
    </g>
   </g>
   <g id="Line3DCollection_1">
    <path d="M 43.63338 261.517692 
L 152.885273 168.860269 
L 151.811525 35.7846 
" style="fill: none; stroke: #b0b0b0; stroke-width: 0.8"/>
    <path d="M 69.781137 270.057549 
L 177.632383 176.053277 
L 177.615911 42.325259 
" style="fill: none; stroke: #b0b0b0; stroke-width: 0.8"/>
    <path d="M 96.326908 278.727398 
L 202.724885 183.346677 
L 203.796057 48.961163 
" style="fill: none; stroke: #b0b0b0; stroke-width: 0.8"/>
    <path d="M 123.279852 287.53023 
L 228.17006 190.742584 
L 230.360231 55.694407 
" style="fill: none; stroke: #b0b0b0; stroke-width: 0.8"/>
    <path d="M 150.649408 296.469126 
L 253.975396 198.243177 
L 257.316946 62.527148 
" style="fill: none; stroke: #b0b0b0; stroke-width: 0.8"/>
    <path d="M 178.445311 305.547268 
L 280.148595 205.850693 
L 284.674968 69.461609 
" style="fill: none; stroke: #b0b0b0; stroke-width: 0.8"/>
    <path d="M 206.677601 314.767934 
L 306.697579 213.567434 
L 312.443324 76.500078 
" style="fill: none; stroke: #b0b0b0; stroke-width: 0.8"/>
   </g>
   <g id="xtick_1">
    <g id="line2d_2">
     <path d="M 44.584739 260.710836 
L 41.726579 263.134866 
" style="fill: none; stroke: #000000; stroke-width: 0.8; stroke-linecap: square"/>
    </g>
    <g id="text_2">
     <!-- 100 -->
     <g transform="translate(26.566174 284.81517) scale(0.1 -0.1)">
      <defs>
       <path id="DejaVuSans-31" d="M 794 531 
L 1825 531 
L 1825 4091 
L 703 3866 
L 703 4441 
L 1819 4666 
L 2450 4666 
L 2450 531 
L 3481 531 
L 3481 0 
L 794 0 
L 794 531 
z
" transform="scale(0.015625)"/>
       <path id="DejaVuSans-30" d="M 2034 4250 
Q 1547 4250 1301 3770 
Q 1056 3291 1056 2328 
Q 1056 1369 1301 889 
Q 1547 409 2034 409 
Q 2525 409 2770 889 
Q 3016 1369 3016 2328 
Q 3016 3291 2770 3770 
Q 2525 4250 2034 4250 
z
M 2034 4750 
Q 2819 4750 3233 4129 
Q 3647 3509 3647 2328 
Q 3647 1150 3233 529 
Q 2819 -91 2034 -91 
Q 1250 -91 836 529 
Q 422 1150 422 2328 
Q 422 3509 836 4129 
Q 1250 4750 2034 4750 
z
" transform="scale(0.015625)"/>
      </defs>
      <use xlink:href="#DejaVuSans-31"/>
      <use xlink:href="#DejaVuSans-30" x="63.623047"/>
      <use xlink:href="#DejaVuSans-30" x="127.246094"/>
     </g>
    </g>
   </g>
   <g id="xtick_2">
    <g id="line2d_3">
     <path d="M 70.720876 269.238463 
L 67.897596 271.699263 
" style="fill: none; stroke: #000000; stroke-width: 0.8; stroke-linecap: square"/>
    </g>
    <g id="text_3">
     <!-- 200 -->
     <g transform="translate(52.735222 293.499532) scale(0.1 -0.1)">
      <defs>
       <path id="DejaVuSans-32" d="M 1228 531 
L 3431 531 
L 3431 0 
L 469 0 
L 469 531 
Q 828 903 1448 1529 
Q 2069 2156 2228 2338 
Q 2531 2678 2651 2914 
Q 2772 3150 2772 3378 
Q 2772 3750 2511 3984 
Q 2250 4219 1831 4219 
Q 1534 4219 1204 4116 
Q 875 4013 500 3803 
L 500 4441 
Q 881 4594 1212 4672 
Q 1544 4750 1819 4750 
Q 2544 4750 2975 4387 
Q 3406 4025 3406 3419 
Q 3406 3131 3298 2873 
Q 3191 2616 2906 2266 
Q 2828 2175 2409 1742 
Q 1991 1309 1228 531 
z
" transform="scale(0.015625)"/>
      </defs>
      <use xlink:href="#DejaVuSans-32"/>
      <use xlink:href="#DejaVuSans-30" x="63.623047"/>
      <use xlink:href="#DejaVuSans-30" x="127.246094"/>
     </g>
    </g>
   </g>
   <g id="xtick_3">
    <g id="line2d_4">
     <path d="M 97.254562 277.895801 
L 94.46756 280.394215 
" style="fill: none; stroke: #000000; stroke-width: 0.8; stroke-linecap: square"/>
    </g>
    <g id="text_4">
     <!-- 300 -->
     <g transform="translate(79.303811 302.316485) scale(0.1 -0.1)">
      <defs>
       <path id="DejaVuSans-33" d="M 2597 2516 
Q 3050 2419 3304 2112 
Q 3559 1806 3559 1356 
Q 3559 666 3084 287 
Q 2609 -91 1734 -91 
Q 1441 -91 1130 -33 
Q 819 25 488 141 
L 488 750 
Q 750 597 1062 519 
Q 1375 441 1716 441 
Q 2309 441 2620 675 
Q 2931 909 2931 1356 
Q 2931 1769 2642 2001 
Q 2353 2234 1838 2234 
L 1294 2234 
L 1294 2753 
L 1863 2753 
Q 2328 2753 2575 2939 
Q 2822 3125 2822 3475 
Q 2822 3834 2567 4026 
Q 2313 4219 1838 4219 
Q 1578 4219 1281 4162 
Q 984 4106 628 3988 
L 628 4550 
Q 988 4650 1302 4700 
Q 1616 4750 1894 4750 
Q 2613 4750 3031 4423 
Q 3450 4097 3450 3541 
Q 3450 3153 3228 2886 
Q 3006 2619 2597 2516 
z
" transform="scale(0.015625)"/>
      </defs>
      <use xlink:href="#DejaVuSans-33"/>
      <use xlink:href="#DejaVuSans-30" x="63.623047"/>
      <use xlink:href="#DejaVuSans-30" x="127.246094"/>
     </g>
    </g>
   </g>
   <g id="xtick_4">
    <g id="line2d_5">
     <path d="M 124.194937 286.685833 
L 121.445664 289.22273 
" style="fill: none; stroke: #000000; stroke-width: 0.8; stroke-linecap: square"/>
    </g>
    <g id="text_5">
     <!-- 400 -->
     <g transform="translate(106.281161 311.269087) scale(0.1 -0.1)">
      <defs>
       <path id="DejaVuSans-34" d="M 2419 4116 
L 825 1625 
L 2419 1625 
L 2419 4116 
z
M 2253 4666 
L 3047 4666 
L 3047 1625 
L 3713 1625 
L 3713 1100 
L 3047 1100 
L 3047 0 
L 2419 0 
L 2419 1100 
L 313 1100 
L 313 1709 
L 2253 4666 
z
" transform="scale(0.015625)"/>
      </defs>
      <use xlink:href="#DejaVuSans-34"/>
      <use xlink:href="#DejaVuSans-30" x="63.623047"/>
      <use xlink:href="#DejaVuSans-30" x="127.246094"/>
     </g>
    </g>
   </g>
   <g id="xtick_5">
    <g id="line2d_6">
     <path d="M 151.551424 295.611632 
L 148.841384 298.187908 
" style="fill: none; stroke: #000000; stroke-width: 0.8; stroke-linecap: square"/>
    </g>
    <g id="text_6">
     <!-- 500 -->
     <g transform="translate(133.676778 320.360494) scale(0.1 -0.1)">
      <defs>
       <path id="DejaVuSans-35" d="M 691 4666 
L 3169 4666 
L 3169 4134 
L 1269 4134 
L 1269 2991 
Q 1406 3038 1543 3061 
Q 1681 3084 1819 3084 
Q 2600 3084 3056 2656 
Q 3513 2228 3513 1497 
Q 3513 744 3044 326 
Q 2575 -91 1722 -91 
Q 1428 -91 1123 -41 
Q 819 9 494 109 
L 494 744 
Q 775 591 1075 516 
Q 1375 441 1709 441 
Q 2250 441 2565 725 
Q 2881 1009 2881 1497 
Q 2881 1984 2565 2268 
Q 2250 2553 1709 2553 
Q 1456 2553 1204 2497 
Q 953 2441 691 2322 
L 691 4666 
z
" transform="scale(0.015625)"/>
      </defs>
      <use xlink:href="#DejaVuSans-35"/>
      <use xlink:href="#DejaVuSans-30" x="63.623047"/>
      <use xlink:href="#DejaVuSans-30" x="127.246094"/>
     </g>
    </g>
   </g>
   <g id="xtick_6">
    <g id="line2d_7">
     <path d="M 179.333739 304.67637 
L 176.664493 307.292949 
" style="fill: none; stroke: #000000; stroke-width: 0.8; stroke-linecap: square"/>
    </g>
    <g id="text_7">
     <!-- 600 -->
     <g transform="translate(161.500466 329.593959) scale(0.1 -0.1)">
      <defs>
       <path id="DejaVuSans-36" d="M 2113 2584 
Q 1688 2584 1439 2293 
Q 1191 2003 1191 1497 
Q 1191 994 1439 701 
Q 1688 409 2113 409 
Q 2538 409 2786 701 
Q 3034 994 3034 1497 
Q 3034 2003 2786 2293 
Q 2538 2584 2113 2584 
z
M 3366 4563 
L 3366 3988 
Q 3128 4100 2886 4159 
Q 2644 4219 2406 4219 
Q 1781 4219 1451 3797 
Q 1122 3375 1075 2522 
Q 1259 2794 1537 2939 
Q 1816 3084 2150 3084 
Q 2853 3084 3261 2657 
Q 3669 2231 3669 1497 
Q 3669 778 3244 343 
Q 2819 -91 2113 -91 
Q 1303 -91 875 529 
Q 447 1150 447 2328 
Q 447 3434 972 4092 
Q 1497 4750 2381 4750 
Q 2619 4750 2861 4703 
Q 3103 4656 3366 4563 
z
" transform="scale(0.015625)"/>
      </defs>
      <use xlink:href="#DejaVuSans-36"/>
      <use xlink:href="#DejaVuSans-30" x="63.623047"/>
      <use xlink:href="#DejaVuSans-30" x="127.246094"/>
     </g>
    </g>
   </g>
   <g id="xtick_7">
    <g id="line2d_8">
     <path d="M 207.551902 313.883314 
L 204.925071 316.54115 
" style="fill: none; stroke: #000000; stroke-width: 0.8; stroke-linecap: square"/>
    </g>
    <g id="text_8">
     <!-- 700 -->
     <g transform="translate(189.762337 338.972838) scale(0.1 -0.1)">
      <defs>
       <path id="DejaVuSans-37" d="M 525 4666 
L 3525 4666 
L 3525 4397 
L 1831 0 
L 1172 0 
L 2766 4134 
L 525 4134 
L 525 4666 
z
" transform="scale(0.015625)"/>
      </defs>
      <use xlink:href="#DejaVuSans-37"/>
      <use xlink:href="#DejaVuSans-30" x="63.623047"/>
      <use xlink:href="#DejaVuSans-30" x="127.246094"/>
     </g>
    </g>
   </g>
  </g>
  <g id="axis3d_2">
   <g id="line2d_9">
    <path d="M 318.433001 216.978458 
L 219.169086 318.847653 
" style="fill: none; stroke: #000000; stroke-width: 0.8; stroke-linecap: square"/>
   </g>
   <g id="text_9">
    <!-- Rainfall -->
    <g transform="translate(286.992277 308.873669) rotate(-45.742112) scale(0.1 -0.1)">
     <defs>
      <path id="DejaVuSans-52" d="M 2841 2188 
Q 3044 2119 3236 1894 
Q 3428 1669 3622 1275 
L 4263 0 
L 3584 0 
L 2988 1197 
Q 2756 1666 2539 1819 
Q 2322 1972 1947 1972 
L 1259 1972 
L 1259 0 
L 628 0 
L 628 4666 
L 2053 4666 
Q 2853 4666 3247 4331 
Q 3641 3997 3641 3322 
Q 3641 2881 3436 2590 
Q 3231 2300 2841 2188 
z
M 1259 4147 
L 1259 2491 
L 2053 2491 
Q 2509 2491 2742 2702 
Q 2975 2913 2975 3322 
Q 2975 3731 2742 3939 
Q 2509 4147 2053 4147 
L 1259 4147 
z
" transform="scale(0.015625)"/>
      <path id="DejaVuSans-61" d="M 2194 1759 
Q 1497 1759 1228 1600 
Q 959 1441 959 1056 
Q 959 750 1161 570 
Q 1363 391 1709 391 
Q 2188 391 2477 730 
Q 2766 1069 2766 1631 
L 2766 1759 
L 2194 1759 
z
M 3341 1997 
L 3341 0 
L 2766 0 
L 2766 531 
Q 2569 213 2275 61 
Q 1981 -91 1556 -91 
Q 1019 -91 701 211 
Q 384 513 384 1019 
Q 384 1609 779 1909 
Q 1175 2209 1959 2209 
L 2766 2209 
L 2766 2266 
Q 2766 2663 2505 2880 
Q 2244 3097 1772 3097 
Q 1472 3097 1187 3025 
Q 903 2953 641 2809 
L 641 3341 
Q 956 3463 1253 3523 
Q 1550 3584 1831 3584 
Q 2591 3584 2966 3190 
Q 3341 2797 3341 1997 
z
" transform="scale(0.015625)"/>
      <path id="DejaVuSans-6e" d="M 3513 2113 
L 3513 0 
L 2938 0 
L 2938 2094 
Q 2938 2591 2744 2837 
Q 2550 3084 2163 3084 
Q 1697 3084 1428 2787 
Q 1159 2491 1159 1978 
L 1159 0 
L 581 0 
L 581 3500 
L 1159 3500 
L 1159 2956 
Q 1366 3272 1645 3428 
Q 1925 3584 2291 3584 
Q 2894 3584 3203 3211 
Q 3513 2838 3513 2113 
z
" transform="scale(0.015625)"/>
      <path id="DejaVuSans-66" d="M 2375 4863 
L 2375 4384 
L 1825 4384 
Q 1516 4384 1395 4259 
Q 1275 4134 1275 3809 
L 1275 3500 
L 2222 3500 
L 2222 3053 
L 1275 3053 
L 1275 0 
L 697 0 
L 697 3053 
L 147 3053 
L 147 3500 
L 697 3500 
L 697 3744 
Q 697 4328 969 4595 
Q 1241 4863 1831 4863 
L 2375 4863 
z
" transform="scale(0.015625)"/>
     </defs>
     <use xlink:href="#DejaVuSans-52"/>
     <use xlink:href="#DejaVuSans-61" x="67.232422"/>
     <use xlink:href="#DejaVuSans-69" x="128.511719"/>
     <use xlink:href="#DejaVuSans-6e" x="156.294922"/>
     <use xlink:href="#DejaVuSans-66" x="219.673828"/>
     <use xlink:href="#DejaVuSans-61" x="254.878906"/>
     <use xlink:href="#DejaVuSans-6c" x="316.158203"/>
     <use xlink:href="#DejaVuSans-6c" x="343.941406"/>
    </g>
   </g>
   <g id="Line3DCollection_2">
    <path d="M 33.492616 111.142459 
L 39.88611 251.476734 
L 226.037381 311.799093 
" style="fill: none; stroke: #b0b0b0; stroke-width: 0.8"/>
    <path d="M 46.922023 101.34229 
L 52.665976 240.764398 
L 237.623884 299.908491 
" style="fill: none; stroke: #b0b0b0; stroke-width: 0.8"/>
    <path d="M 60.085557 91.736142 
L 65.203809 230.254937 
L 248.979378 288.254961 
" style="fill: none; stroke: #b0b0b0; stroke-width: 0.8"/>
    <path d="M 72.991036 82.318312 
L 77.50642 219.942644 
L 260.110703 276.831482 
" style="fill: none; stroke: #b0b0b0; stroke-width: 0.8"/>
    <path d="M 85.645974 73.083314 
L 89.580369 209.822022 
L 271.024434 265.63131 
" style="fill: none; stroke: #b0b0b0; stroke-width: 0.8"/>
    <path d="M 98.057598 64.025876 
L 101.43197 199.887775 
L 281.726887 254.64796 
" style="fill: none; stroke: #b0b0b0; stroke-width: 0.8"/>
    <path d="M 110.232858 55.140926 
L 113.06731 190.134802 
L 292.22414 243.875197 
" style="fill: none; stroke: #b0b0b0; stroke-width: 0.8"/>
    <path d="M 122.178441 46.423583 
L 124.492254 180.558187 
L 302.522037 233.30702 
" style="fill: none; stroke: #b0b0b0; stroke-width: 0.8"/>
    <path d="M 133.900787 37.869149 
L 135.712459 171.153189 
L 312.626206 222.937658 
" style="fill: none; stroke: #b0b0b0; stroke-width: 0.8"/>
   </g>
   <g id="xtick_8">
    <g id="line2d_10">
     <path d="M 224.468678 311.290755 
L 229.178842 312.817085 
" style="fill: none; stroke: #000000; stroke-width: 0.8; stroke-linecap: square"/>
    </g>
    <g id="text_10">
     <!-- 10.0 -->
     <g transform="translate(227.78366 332.819216) scale(0.1 -0.1)">
      <defs>
       <path id="DejaVuSans-2e" d="M 684 794 
L 1344 794 
L 1344 0 
L 684 0 
L 684 794 
z
" transform="scale(0.015625)"/>
      </defs>
      <use xlink:href="#DejaVuSans-31"/>
      <use xlink:href="#DejaVuSans-30" x="63.623047"/>
      <use xlink:href="#DejaVuSans-2e" x="127.246094"/>
      <use xlink:href="#DejaVuSans-30" x="159.033203"/>
     </g>
    </g>
   </g>
   <g id="xtick_9">
    <g id="line2d_11">
     <path d="M 236.066033 299.410336 
L 240.743574 300.906076 
" style="fill: none; stroke: #000000; stroke-width: 0.8; stroke-linecap: square"/>
    </g>
    <g id="text_11">
     <!-- 12.5 -->
     <g transform="translate(239.245912 320.787765) scale(0.1 -0.1)">
      <use xlink:href="#DejaVuSans-31"/>
      <use xlink:href="#DejaVuSans-32" x="63.623047"/>
      <use xlink:href="#DejaVuSans-2e" x="127.246094"/>
      <use xlink:href="#DejaVuSans-35" x="159.033203"/>
     </g>
    </g>
   </g>
   <g id="xtick_10">
    <g id="line2d_12">
     <path d="M 247.43226 287.766686 
L 252.077536 289.232747 
" style="fill: none; stroke: #000000; stroke-width: 0.8; stroke-linecap: square"/>
    </g>
    <g id="text_12">
     <!-- 15.0 -->
     <g transform="translate(250.479525 308.996308) scale(0.1 -0.1)">
      <use xlink:href="#DejaVuSans-31"/>
      <use xlink:href="#DejaVuSans-35" x="63.623047"/>
      <use xlink:href="#DejaVuSans-2e" x="127.246094"/>
      <use xlink:href="#DejaVuSans-30" x="159.033203"/>
     </g>
    </g>
   </g>
   <g id="xtick_11">
    <g id="line2d_13">
     <path d="M 258.5742 276.352797 
L 263.187567 277.790053 
" style="fill: none; stroke: #000000; stroke-width: 0.8; stroke-linecap: square"/>
    </g>
    <g id="text_13">
     <!-- 17.5 -->
     <g transform="translate(261.491273 297.437733) scale(0.1 -0.1)">
      <use xlink:href="#DejaVuSans-31"/>
      <use xlink:href="#DejaVuSans-37" x="63.623047"/>
      <use xlink:href="#DejaVuSans-2e" x="127.246094"/>
      <use xlink:href="#DejaVuSans-35" x="159.033203"/>
     </g>
    </g>
   </g>
   <g id="xtick_12">
    <g id="line2d_14">
     <path d="M 269.498427 265.161935 
L 274.080239 266.571227 
" style="fill: none; stroke: #000000; stroke-width: 0.8; stroke-linecap: square"/>
    </g>
    <g id="text_14">
     <!-- 20.0 -->
     <g transform="translate(272.287664 286.105209) scale(0.1 -0.1)">
      <use xlink:href="#DejaVuSans-32"/>
      <use xlink:href="#DejaVuSans-30" x="63.623047"/>
      <use xlink:href="#DejaVuSans-2e" x="127.246094"/>
      <use xlink:href="#DejaVuSans-30" x="159.033203"/>
     </g>
    </g>
   </g>
   <g id="xtick_13">
    <g id="line2d_15">
     <path d="M 280.211261 254.187626 
L 284.761869 255.569762 
" style="fill: none; stroke: #000000; stroke-width: 0.8; stroke-linecap: square"/>
    </g>
    <g id="text_15">
     <!-- 22.5 -->
     <g transform="translate(282.874954 274.99217) scale(0.1 -0.1)">
      <use xlink:href="#DejaVuSans-32"/>
      <use xlink:href="#DejaVuSans-32" x="63.623047"/>
      <use xlink:href="#DejaVuSans-2e" x="127.246094"/>
      <use xlink:href="#DejaVuSans-35" x="159.033203"/>
     </g>
    </g>
   </g>
   <g id="xtick_14">
    <g id="line2d_16">
     <path d="M 290.718778 243.423644 
L 295.238531 244.779402 
" style="fill: none; stroke: #000000; stroke-width: 0.8; stroke-linecap: square"/>
    </g>
    <g id="text_16">
     <!-- 25.0 -->
     <g transform="translate(293.25916 264.092299) scale(0.1 -0.1)">
      <use xlink:href="#DejaVuSans-32"/>
      <use xlink:href="#DejaVuSans-35" x="63.623047"/>
      <use xlink:href="#DejaVuSans-2e" x="127.246094"/>
      <use xlink:href="#DejaVuSans-30" x="159.033203"/>
     </g>
    </g>
   </g>
   <g id="xtick_15">
    <g id="line2d_17">
     <path d="M 301.026826 232.864001 
L 305.516069 234.194128 
" style="fill: none; stroke: #000000; stroke-width: 0.8; stroke-linecap: square"/>
    </g>
    <g id="text_17">
     <!-- 27.5 -->
     <g transform="translate(303.44607 253.399523) scale(0.1 -0.1)">
      <use xlink:href="#DejaVuSans-32"/>
      <use xlink:href="#DejaVuSans-37" x="63.623047"/>
      <use xlink:href="#DejaVuSans-2e" x="127.246094"/>
      <use xlink:href="#DejaVuSans-35" x="159.033203"/>
     </g>
    </g>
   </g>
   <g id="xtick_16">
    <g id="line2d_18">
     <path d="M 311.141031 222.502932 
L 315.600107 223.808149 
" style="fill: none; stroke: #000000; stroke-width: 0.8; stroke-linecap: square"/>
    </g>
    <g id="text_18">
     <!-- 30.0 -->
     <g transform="translate(313.441253 242.907993) scale(0.1 -0.1)">
      <use xlink:href="#DejaVuSans-33"/>
      <use xlink:href="#DejaVuSans-30" x="63.623047"/>
      <use xlink:href="#DejaVuSans-2e" x="127.246094"/>
      <use xlink:href="#DejaVuSans-30" x="159.033203"/>
     </g>
    </g>
   </g>
  </g>
  <g id="axis3d_3">
   <g id="line2d_19">
    <path d="M 318.433001 216.978458 
L 324.723377 79.612714 
" style="fill: none; stroke: #000000; stroke-width: 0.8; stroke-linecap: square"/>
   </g>
   <g id="text_19">
    <!-- Yield -->
    <g transform="translate(364.150797 156.399104) rotate(-87.378092) scale(0.1 -0.1)">
     <defs>
      <path id="DejaVuSans-59" d="M -13 4666 
L 666 4666 
L 1959 2747 
L 3244 4666 
L 3922 4666 
L 2272 2222 
L 2272 0 
L 1638 0 
L 1638 2222 
L -13 4666 
z
" transform="scale(0.015625)"/>
      <path id="DejaVuSans-64" d="M 2906 2969 
L 2906 4863 
L 3481 4863 
L 3481 0 
L 2906 0 
L 2906 525 
Q 2725 213 2448 61 
Q 2172 -91 1784 -91 
Q 1150 -91 751 415 
Q 353 922 353 1747 
Q 353 2572 751 3078 
Q 1150 3584 1784 3584 
Q 2172 3584 2448 3432 
Q 2725 3281 2906 2969 
z
M 947 1747 
Q 947 1113 1208 752 
Q 1469 391 1925 391 
Q 2381 391 2643 752 
Q 2906 1113 2906 1747 
Q 2906 2381 2643 2742 
Q 2381 3103 1925 3103 
Q 1469 3103 1208 2742 
Q 947 2381 947 1747 
z
" transform="scale(0.015625)"/>
     </defs>
     <use xlink:href="#DejaVuSans-59"/>
     <use xlink:href="#DejaVuSans-69" x="57.458984"/>
     <use xlink:href="#DejaVuSans-65" x="85.242188"/>
     <use xlink:href="#DejaVuSans-6c" x="146.765625"/>
     <use xlink:href="#DejaVuSans-64" x="174.548828"/>
    </g>
   </g>
   <g id="Line3DCollection_3">
    <path d="M 318.817182 208.588916 
L 142.07176 157.618083 
L 31.902951 249.231656 
" style="fill: none; stroke: #b0b0b0; stroke-width: 0.8"/>
    <path d="M 319.480693 194.099535 
L 141.910428 143.588304 
L 31.188323 234.39194 
" style="fill: none; stroke: #b0b0b0; stroke-width: 0.8"/>
    <path d="M 320.150487 179.47295 
L 141.747642 129.432012 
L 30.46667 219.406349 
" style="fill: none; stroke: #b0b0b0; stroke-width: 0.8"/>
    <path d="M 320.826653 164.707202 
L 141.583382 115.147489 
L 29.737888 204.272723 
" style="fill: none; stroke: #b0b0b0; stroke-width: 0.8"/>
    <path d="M 321.509284 149.800294 
L 141.417627 100.732984 
L 29.001871 188.988857 
" style="fill: none; stroke: #b0b0b0; stroke-width: 0.8"/>
    <path d="M 322.198472 134.750194 
L 141.250356 86.186715 
L 28.258511 173.552502 
" style="fill: none; stroke: #b0b0b0; stroke-width: 0.8"/>
    <path d="M 322.894312 119.554828 
L 141.081549 71.506866 
L 27.507697 157.961364 
" style="fill: none; stroke: #b0b0b0; stroke-width: 0.8"/>
    <path d="M 323.5969 104.212083 
L 140.911186 56.69159 
L 26.749317 142.213105 
" style="fill: none; stroke: #b0b0b0; stroke-width: 0.8"/>
    <path d="M 324.306337 88.719804 
L 140.739243 41.739003 
L 25.983255 126.305337 
" style="fill: none; stroke: #b0b0b0; stroke-width: 0.8"/>
   </g>
   <g id="xtick_17">
    <g id="line2d_20">
     <path d="M 317.333611 208.161075 
L 321.787862 209.445617 
" style="fill: none; stroke: #000000; stroke-width: 0.8; stroke-linecap: square"/>
    </g>
    <g id="text_20">
     <!-- 40 -->
     <g transform="translate(330.763184 213.593868) scale(0.1 -0.1)">
      <use xlink:href="#DejaVuSans-34"/>
      <use xlink:href="#DejaVuSans-30" x="63.623047"/>
     </g>
    </g>
   </g>
   <g id="xtick_18">
    <g id="line2d_21">
     <path d="M 317.989869 193.675459 
L 322.465913 194.948704 
" style="fill: none; stroke: #000000; stroke-width: 0.8; stroke-linecap: square"/>
    </g>
    <g id="text_21">
     <!-- 45 -->
     <g transform="translate(331.511158 199.12733) scale(0.1 -0.1)">
      <use xlink:href="#DejaVuSans-34"/>
      <use xlink:href="#DejaVuSans-35" x="63.623047"/>
     </g>
    </g>
   </g>
   <g id="xtick_19">
    <g id="line2d_22">
     <path d="M 318.652339 179.052729 
L 323.150389 180.314405 
" style="fill: none; stroke: #000000; stroke-width: 0.8; stroke-linecap: square"/>
    </g>
    <g id="text_22">
     <!-- 50 -->
     <g transform="translate(332.266198 184.524135) scale(0.1 -0.1)">
      <use xlink:href="#DejaVuSans-35"/>
      <use xlink:href="#DejaVuSans-30" x="63.623047"/>
     </g>
    </g>
   </g>
   <g id="xtick_20">
    <g id="line2d_23">
     <path d="M 319.321109 164.290927 
L 323.841384 165.540757 
" style="fill: none; stroke: #000000; stroke-width: 0.8; stroke-linecap: square"/>
    </g>
    <g id="text_23">
     <!-- 55 -->
     <g transform="translate(333.028404 169.782339) scale(0.1 -0.1)">
      <use xlink:href="#DejaVuSans-35"/>
      <use xlink:href="#DejaVuSans-35" x="63.623047"/>
     </g>
    </g>
   </g>
   <g id="xtick_21">
    <g id="line2d_24">
     <path d="M 319.99627 149.388062 
L 324.538989 150.62576 
" style="fill: none; stroke: #000000; stroke-width: 0.8; stroke-linecap: square"/>
    </g>
    <g id="text_24">
     <!-- 60 -->
     <g transform="translate(333.797879 154.899959) scale(0.1 -0.1)">
      <use xlink:href="#DejaVuSans-36"/>
      <use xlink:href="#DejaVuSans-30" x="63.623047"/>
     </g>
    </g>
   </g>
   <g id="xtick_22">
    <g id="line2d_25">
     <path d="M 320.677914 134.342102 
L 325.243301 135.567376 
" style="fill: none; stroke: #000000; stroke-width: 0.8; stroke-linecap: square"/>
    </g>
    <g id="text_25">
     <!-- 65 -->
     <g transform="translate(334.574727 139.874974) scale(0.1 -0.1)">
      <use xlink:href="#DejaVuSans-36"/>
      <use xlink:href="#DejaVuSans-35" x="63.623047"/>
     </g>
    </g>
   </g>
   <g id="xtick_23">
    <g id="line2d_26">
     <path d="M 321.366134 119.150974 
L 325.954417 120.363527 
" style="fill: none; stroke: #000000; stroke-width: 0.8; stroke-linecap: square"/>
    </g>
    <g id="text_26">
     <!-- 70 -->
     <g transform="translate(335.359055 124.705324) scale(0.1 -0.1)">
      <use xlink:href="#DejaVuSans-37"/>
      <use xlink:href="#DejaVuSans-30" x="63.623047"/>
     </g>
    </g>
   </g>
   <g id="xtick_24">
    <g id="line2d_27">
     <path d="M 322.061026 103.812569 
L 326.672436 105.012096 
" style="fill: none; stroke: #000000; stroke-width: 0.8; stroke-linecap: square"/>
    </g>
    <g id="text_27">
     <!-- 75 -->
     <g transform="translate(336.150971 109.388911) scale(0.1 -0.1)">
      <use xlink:href="#DejaVuSans-37"/>
      <use xlink:href="#DejaVuSans-35" x="63.623047"/>
     </g>
    </g>
   </g>
   <g id="xtick_25">
    <g id="line2d_28">
     <path d="M 322.762689 88.324734 
L 327.397458 89.510922 
" style="fill: none; stroke: #000000; stroke-width: 0.8; stroke-linecap: square"/>
    </g>
    <g id="text_28">
     <!-- 80 -->
     <g transform="translate(336.950586 93.923593) scale(0.1 -0.1)">
      <defs>
       <path id="DejaVuSans-38" d="M 2034 2216 
Q 1584 2216 1326 1975 
Q 1069 1734 1069 1313 
Q 1069 891 1326 650 
Q 1584 409 2034 409 
Q 2484 409 2743 651 
Q 3003 894 3003 1313 
Q 3003 1734 2745 1975 
Q 2488 2216 2034 2216 
z
M 1403 2484 
Q 997 2584 770 2862 
Q 544 3141 544 3541 
Q 544 4100 942 4425 
Q 1341 4750 2034 4750 
Q 2731 4750 3128 4425 
Q 3525 4100 3525 3541 
Q 3525 3141 3298 2862 
Q 3072 2584 2669 2484 
Q 3125 2378 3379 2068 
Q 3634 1759 3634 1313 
Q 3634 634 3220 271 
Q 2806 -91 2034 -91 
Q 1263 -91 848 271 
Q 434 634 434 1313 
Q 434 1759 690 2068 
Q 947 2378 1403 2484 
z
M 1172 3481 
Q 1172 3119 1398 2916 
Q 1625 2713 2034 2713 
Q 2441 2713 2670 2916 
Q 2900 3119 2900 3481 
Q 2900 3844 2670 4047 
Q 2441 4250 2034 4250 
Q 1625 4250 1398 4047 
Q 1172 3844 1172 3481 
z
" transform="scale(0.015625)"/>
      </defs>
      <use xlink:href="#DejaVuSans-38"/>
      <use xlink:href="#DejaVuSans-30" x="63.623047"/>
     </g>
    </g>
   </g>
  </g>
  <g id="axes_1">
   <g id="Path3DCollection_1">
    <defs>
     <path id="C0_0_5969466d04" d="M 0 2.236068 
C 0.593012 2.236068 1.161816 2.000462 1.581139 1.581139 
C 2.000462 1.161816 2.236068 0.593012 2.236068 -0 
C 2.236068 -0.593012 2.000462 -1.161816 1.581139 -1.581139 
C 1.161816 -2.000462 0.593012 -2.236068 0 -2.236068 
C -0.593012 -2.236068 -1.161816 -2.000462 -1.581139 -1.581139 
C -2.000462 -1.161816 -2.236068 -0.593012 -2.236068 0 
C -2.236068 0.593012 -2.000462 1.161816 -1.581139 1.581139 
C -1.161816 2.000462 -0.593012 2.236068 0 2.236068 
z
"/>
    </defs>
    <g clip-path="url(#p73a3464439)">
     <use xlink:href="#C0_0_5969466d04" x="223.391894" y="100.25437" style="fill: #008000; stroke: #008000"/>
    </g>
    <g clip-path="url(#p73a3464439)">
     <use xlink:href="#C0_0_5969466d04" x="125.389272" y="183.435135" style="fill: #008000; stroke: #008000"/>
    </g>
    <g clip-path="url(#p73a3464439)">
     <use xlink:href="#C0_0_5969466d04" x="50.804347" y="246.554185" style="fill: #008000; stroke: #008000"/>
    </g>
    <g clip-path="url(#p73a3464439)">
     <use xlink:href="#C0_0_5969466d04" x="305.994978" y="91.02684" style="fill: #008000; stroke: #008000"/>
    </g>
    <g clip-path="url(#p73a3464439)">
     <use xlink:href="#C0_0_5969466d04" x="205.316623" y="161.549039" style="fill: #008000; stroke: #008000"/>
    </g>
    <g clip-path="url(#p73a3464439)">
     <use xlink:href="#C0_0_5969466d04" x="233.035826" y="169.433401" style="fill: #008000; stroke: #008000"/>
    </g>
    <g clip-path="url(#p73a3464439)">
     <use xlink:href="#C0_0_5969466d04" x="102.712843" y="233.41994" style="fill: #008000; stroke: #008000"/>
    </g>
   </g>
   <g id="Poly3DCollection_1">
    <path d="M 136.883847 130.034991 
L 141.903033 129.237847 
L 150.906097 117.094109 
L 145.897039 117.912208 
z
" clip-path="url(#p73a3464439)" style="fill-opacity: 0.4"/>
    <path d="M 141.903033 129.237847 
L 146.943573 128.43731 
L 155.936343 116.27255 
L 150.906097 117.094109 
z
" clip-path="url(#p73a3464439)" style="fill-opacity: 0.4"/>
    <path d="M 146.943573 128.43731 
L 152.005603 127.633361 
L 160.98791 115.447508 
L 155.936343 116.27255 
z
" clip-path="url(#p73a3464439)" style="fill-opacity: 0.4"/>
    <path d="M 127.764964 142.29993 
L 132.79417 141.52429 
L 141.903033 129.237847 
L 136.883847 130.034991 
z
" clip-path="url(#p73a3464439)" style="fill-opacity: 0.4"/>
    <path d="M 152.005603 127.633361 
L 157.089261 126.825977 
L 166.060934 114.618961 
L 160.98791 115.447508 
z
" clip-path="url(#p73a3464439)" style="fill-opacity: 0.4"/>
    <path d="M 132.79417 141.52429 
L 137.844899 140.74533 
L 146.943573 128.43731 
L 141.903033 129.237847 
z
" clip-path="url(#p73a3464439)" style="fill-opacity: 0.4"/>
    <path d="M 157.089261 126.825977 
L 162.194687 126.015135 
L 171.155553 113.786888 
L 166.060934 114.618961 
z
" clip-path="url(#p73a3464439)" style="fill-opacity: 0.4"/>
    <path d="M 137.844899 140.74533 
L 142.917289 139.963029 
L 152.005603 127.633361 
L 146.943573 128.43731 
z
" clip-path="url(#p73a3464439)" style="fill-opacity: 0.4"/>
    <path d="M 162.194687 126.015135 
L 167.32202 125.200815 
L 176.271905 112.951265 
L 171.155553 113.786888 
z
" clip-path="url(#p73a3464439)" style="fill-opacity: 0.4"/>
    <path d="M 118.538519 154.70954 
L 123.577633 153.955969 
L 132.79417 141.52429 
L 127.764964 142.29993 
z
" clip-path="url(#p73a3464439)" style="fill-opacity: 0.4"/>
    <path d="M 142.917289 139.963029 
L 148.011479 139.177367 
L 157.089261 126.825977 
L 152.005603 127.633361 
z
" clip-path="url(#p73a3464439)" style="fill-opacity: 0.4"/>
    <path d="M 167.32202 125.200815 
L 172.471402 124.382992 
L 181.410128 112.11207 
L 176.271905 112.951265 
z
" clip-path="url(#p73a3464439)" style="fill-opacity: 0.4"/>
    <path d="M 123.577633 153.955969 
L 128.63844 153.199154 
L 137.844899 140.74533 
L 132.79417 141.52429 
z
" clip-path="url(#p73a3464439)" style="fill-opacity: 0.4"/>
    <path d="M 148.011479 139.177367 
L 153.127612 138.38832 
L 162.194687 126.015135 
L 157.089261 126.825977 
z
" clip-path="url(#p73a3464439)" style="fill-opacity: 0.4"/>
    <path d="M 172.471402 124.382992 
L 177.642975 123.561645 
L 186.570364 111.26928 
L 181.410128 112.11207 
z
" clip-path="url(#p73a3464439)" style="fill-opacity: 0.4"/>
    <path d="M 128.63844 153.199154 
L 133.72108 152.439074 
L 142.917289 139.963029 
L 137.844899 140.74533 
z
" clip-path="url(#p73a3464439)" style="fill-opacity: 0.4"/>
    <path d="M 153.127612 138.38832 
L 158.265828 137.595867 
L 167.32202 125.200815 
L 162.194687 126.015135 
z
" clip-path="url(#p73a3464439)" style="fill-opacity: 0.4"/>
    <path d="M 177.642975 123.561645 
L 182.836883 122.736751 
L 191.752755 110.422871 
L 186.570364 111.26928 
z
" clip-path="url(#p73a3464439)" style="fill-opacity: 0.4"/>
    <path d="M 109.202597 167.266396 
L 114.251501 166.535475 
L 123.577633 153.955969 
L 118.538519 154.70954 
z
" clip-path="url(#p73a3464439)" style="fill-opacity: 0.4"/>
    <path d="M 133.72108 152.439074 
L 138.825695 151.675707 
L 148.011479 139.177367 
L 142.917289 139.963029 
z
" clip-path="url(#p73a3464439)" style="fill-opacity: 0.4"/>
    <path d="M 158.265828 137.595867 
L 163.426271 136.799986 
L 172.471402 124.382992 
L 167.32202 125.200815 
z
" clip-path="url(#p73a3464439)" style="fill-opacity: 0.4"/>
    <path d="M 182.836883 122.736751 
L 188.053271 121.908287 
L 196.957443 109.572821 
L 191.752755 110.422871 
z
" clip-path="url(#p73a3464439)" style="fill-opacity: 0.4"/>
    <path d="M 114.251501 166.535475 
L 119.322268 165.801388 
L 128.63844 153.199154 
L 123.577633 153.955969 
z
" clip-path="url(#p73a3464439)" style="fill-opacity: 0.4"/>
    <path d="M 138.825695 151.675707 
L 143.952427 150.909033 
L 153.127612 138.38832 
L 148.011479 139.177367 
z
" clip-path="url(#p73a3464439)" style="fill-opacity: 0.4"/>
    <path d="M 163.426271 136.799986 
L 168.609085 136.000655 
L 177.642975 123.561645 
L 172.471402 124.382992 
z
" clip-path="url(#p73a3464439)" style="fill-opacity: 0.4"/>
    <path d="M 188.053271 121.908287 
L 193.292286 121.076229 
L 202.184573 108.719105 
L 196.957443 109.572821 
z
" clip-path="url(#p73a3464439)" style="fill-opacity: 0.4"/>
    <path d="M 119.322268 165.801388 
L 124.415043 165.064115 
L 133.72108 152.439074 
L 128.63844 153.199154 
z
" clip-path="url(#p73a3464439)" style="fill-opacity: 0.4"/>
    <path d="M 143.952427 150.909033 
L 149.101421 150.13903 
L 158.265828 137.595867 
L 153.127612 138.38832 
z
" clip-path="url(#p73a3464439)" style="fill-opacity: 0.4"/>
    <path d="M 168.609085 136.000655 
L 173.814417 135.197852 
L 182.836883 122.736751 
L 177.642975 123.561645 
z
" clip-path="url(#p73a3464439)" style="fill-opacity: 0.4"/>
    <path d="M 193.292286 121.076229 
L 198.554074 120.240555 
L 207.434289 107.861701 
L 202.184573 108.719105 
z
" clip-path="url(#p73a3464439)" style="fill-opacity: 0.4"/>
    <path d="M 99.75524 179.973134 
L 104.813807 179.265459 
L 114.251501 166.535475 
L 109.202597 167.266396 
z
" clip-path="url(#p73a3464439)" style="fill-opacity: 0.4"/>
    <path d="M 124.415043 165.064115 
L 129.529968 164.323636 
L 138.825695 151.675707 
L 133.72108 152.439074 
z
" clip-path="url(#p73a3464439)" style="fill-opacity: 0.4"/>
    <path d="M 149.101421 150.13903 
L 154.272822 149.365676 
L 163.426271 136.799986 
L 158.265828 137.595867 
z
" clip-path="url(#p73a3464439)" style="fill-opacity: 0.4"/>
    <path d="M 173.814417 135.197852 
L 179.042413 134.391552 
L 188.053271 121.908287 
L 182.836883 122.736751 
z
" clip-path="url(#p73a3464439)" style="fill-opacity: 0.4"/>
    <path d="M 198.554074 120.240555 
L 203.838784 119.401239 
L 212.706739 107.000583 
L 207.434289 107.861701 
z
" clip-path="url(#p73a3464439)" style="fill-opacity: 0.4"/>
    <path d="M 104.813807 179.265459 
L 109.894412 178.554702 
L 119.322268 165.801388 
L 114.251501 166.535475 
z
" clip-path="url(#p73a3464439)" style="fill-opacity: 0.4"/>
    <path d="M 129.529968 164.323636 
L 134.667188 163.579929 
L 143.952427 150.909033 
L 138.825695 151.675707 
z
" clip-path="url(#p73a3464439)" style="fill-opacity: 0.4"/>
    <path d="M 154.272822 149.365676 
L 159.466777 148.588949 
L 168.609085 136.000655 
L 163.426271 136.799986 
z
" clip-path="url(#p73a3464439)" style="fill-opacity: 0.4"/>
    <path d="M 179.042413 134.391552 
L 184.293222 133.581735 
L 193.292286 121.076229 
L 188.053271 121.908287 
z
" clip-path="url(#p73a3464439)" style="fill-opacity: 0.4"/>
    <path d="M 203.838784 119.401239 
L 209.146567 118.55826 
L 218.002071 106.135729 
L 212.706739 107.000583 
z
" clip-path="url(#p73a3464439)" style="fill-opacity: 0.4"/>
    <path d="M 109.894412 178.554702 
L 114.997199 177.840841 
L 124.415043 165.064115 
L 119.322268 165.801388 
z
" clip-path="url(#p73a3464439)" style="fill-opacity: 0.4"/>
    <path d="M 134.667188 163.579929 
L 139.826849 162.832974 
L 149.101421 150.13903 
L 143.952427 150.909033 
z
" clip-path="url(#p73a3464439)" style="fill-opacity: 0.4"/>
    <path d="M 159.466777 148.588949 
L 164.683433 147.808828 
L 173.814417 135.197852 
L 168.609085 136.000655 
z
" clip-path="url(#p73a3464439)" style="fill-opacity: 0.4"/>
    <path d="M 184.293222 133.581735 
L 189.566993 132.768376 
L 198.554074 120.240555 
L 193.292286 121.076229 
z
" clip-path="url(#p73a3464439)" style="fill-opacity: 0.4"/>
    <path d="M 90.194439 192.832454 
L 95.262538 192.148639 
L 104.813807 179.265459 
L 99.75524 179.973134 
z
" clip-path="url(#p73a3464439)" style="fill-opacity: 0.4"/>
    <path d="M 209.146567 118.55826 
L 214.477575 117.711591 
L 223.320434 105.267112 
L 218.002071 106.135729 
z
" clip-path="url(#p73a3464439)" style="fill-opacity: 0.4"/>
    <path d="M 114.997199 177.840841 
L 120.122314 177.123856 
L 129.529968 164.323636 
L 124.415043 165.064115 
z
" clip-path="url(#p73a3464439)" style="fill-opacity: 0.4"/>
    <path d="M 139.826849 162.832974 
L 145.009099 162.082748 
L 154.272822 149.365676 
L 149.101421 150.13903 
z
" clip-path="url(#p73a3464439)" style="fill-opacity: 0.4"/>
    <path d="M 164.683433 147.808828 
L 169.922939 147.025289 
L 179.042413 134.391552 
L 173.814417 135.197852 
z
" clip-path="url(#p73a3464439)" style="fill-opacity: 0.4"/>
    <path d="M 189.566993 132.768376 
L 194.863878 131.951452 
L 203.838784 119.401239 
L 198.554074 120.240555 
z
" clip-path="url(#p73a3464439)" style="fill-opacity: 0.4"/>
    <path d="M 95.262538 192.148639 
L 100.352851 191.461828 
L 109.894412 178.554702 
L 104.813807 179.265459 
z
" clip-path="url(#p73a3464439)" style="fill-opacity: 0.4"/>
    <path d="M 214.477575 117.711591 
L 219.831959 116.861211 
L 228.661979 104.39471 
L 223.320434 105.267112 
z
" clip-path="url(#p73a3464439)" style="fill-opacity: 0.4"/>
    <path d="M 120.122314 177.123856 
L 125.269903 176.403727 
L 134.667188 163.579929 
L 129.529968 164.323636 
z
" clip-path="url(#p73a3464439)" style="fill-opacity: 0.4"/>
    <path d="M 145.009099 162.082748 
L 150.214087 161.329231 
L 159.466777 148.588949 
L 154.272822 149.365676 
z
" clip-path="url(#p73a3464439)" style="fill-opacity: 0.4"/>
    <path d="M 169.922939 147.025289 
L 175.185447 146.238311 
L 184.293222 133.581735 
L 179.042413 134.391552 
z
" clip-path="url(#p73a3464439)" style="fill-opacity: 0.4"/>
    <path d="M 194.863878 131.951452 
L 200.184028 131.13094 
L 209.146567 118.55826 
L 203.838784 119.401239 
z
" clip-path="url(#p73a3464439)" style="fill-opacity: 0.4"/>
    <path d="M 100.352851 191.461828 
L 105.465521 190.771999 
L 114.997199 177.840841 
L 109.894412 178.554702 
z
" clip-path="url(#p73a3464439)" style="fill-opacity: 0.4"/>
    <path d="M 219.831959 116.861211 
L 225.209874 116.007092 
L 234.026857 103.518497 
L 228.661979 104.39471 
z
" clip-path="url(#p73a3464439)" style="fill-opacity: 0.4"/>
    <path d="M 125.269903 176.403727 
L 130.440114 175.680434 
L 139.826849 162.832974 
L 134.667188 163.579929 
z
" clip-path="url(#p73a3464439)" style="fill-opacity: 0.4"/>
    <path d="M 150.214087 161.329231 
L 155.441961 160.5724 
L 164.683433 147.808828 
L 159.466777 148.588949 
z
" clip-path="url(#p73a3464439)" style="fill-opacity: 0.4"/>
    <path d="M 175.185447 146.238311 
L 180.471108 145.44787 
L 189.566993 132.768376 
L 184.293222 133.581735 
z
" clip-path="url(#p73a3464439)" style="fill-opacity: 0.4"/>
    <path d="M 80.518138 205.847121 
L 85.595632 205.187797 
L 95.262538 192.148639 
L 90.194439 192.832454 
z
" clip-path="url(#p73a3464439)" style="fill-opacity: 0.4"/>
    <path d="M 200.184028 131.13094 
L 205.527598 130.306816 
L 214.477575 117.711591 
L 209.146567 118.55826 
z
" clip-path="url(#p73a3464439)" style="fill-opacity: 0.4"/>
    <path d="M 105.465521 190.771999 
L 110.600698 190.079134 
L 120.122314 177.123856 
L 114.997199 177.840841 
z
" clip-path="url(#p73a3464439)" style="fill-opacity: 0.4"/>
    <path d="M 225.209874 116.007092 
L 230.611476 115.149213 
L 239.415221 102.638448 
L 234.026857 103.518497 
z
" clip-path="url(#p73a3464439)" style="fill-opacity: 0.4"/>
    <path d="M 130.440114 175.680434 
L 135.633098 174.953955 
L 145.009099 162.082748 
L 139.826849 162.832974 
z
" clip-path="url(#p73a3464439)" style="fill-opacity: 0.4"/>
    <path d="M 155.441961 160.5724 
L 160.692875 159.812234 
L 169.922939 147.025289 
L 164.683433 147.808828 
z
" clip-path="url(#p73a3464439)" style="fill-opacity: 0.4"/>
    <path d="M 180.471108 145.44787 
L 185.780074 144.653944 
L 194.863878 131.951452 
L 189.566993 132.768376 
z
" clip-path="url(#p73a3464439)" style="fill-opacity: 0.4"/>
    <path d="M 85.595632 205.187797 
L 90.695514 204.525565 
L 100.352851 191.461828 
L 95.262538 192.148639 
z
" clip-path="url(#p73a3464439)" style="fill-opacity: 0.4"/>
    <path d="M 205.527598 130.306816 
L 210.894741 129.479057 
L 219.831959 116.861211 
L 214.477575 117.711591 
z
" clip-path="url(#p73a3464439)" style="fill-opacity: 0.4"/>
    <path d="M 110.600698 190.079134 
L 115.758531 189.383211 
L 125.269903 176.403727 
L 120.122314 177.123856 
z
" clip-path="url(#p73a3464439)" style="fill-opacity: 0.4"/>
    <path d="M 230.611476 115.149213 
L 236.036921 114.287546 
L 244.827227 101.754538 
L 239.415221 102.638448 
z
" clip-path="url(#p73a3464439)" style="fill-opacity: 0.4"/>
    <path d="M 135.633098 174.953955 
L 140.849004 174.224269 
L 150.214087 161.329231 
L 145.009099 162.082748 
z
" clip-path="url(#p73a3464439)" style="fill-opacity: 0.4"/>
    <path d="M 160.692875 159.812234 
L 165.966979 159.048711 
L 175.185447 146.238311 
L 169.922939 147.025289 
z
" clip-path="url(#p73a3464439)" style="fill-opacity: 0.4"/>
    <path d="M 185.780074 144.653944 
L 191.112501 143.856509 
L 200.184028 131.13094 
L 194.863878 131.951452 
z
" clip-path="url(#p73a3464439)" style="fill-opacity: 0.4"/>
    <path d="M 90.695514 204.525565 
L 95.817933 203.860407 
L 105.465521 190.771999 
L 100.352851 191.461828 
z
" clip-path="url(#p73a3464439)" style="fill-opacity: 0.4"/>
    <path d="M 210.894741 129.479057 
L 216.285616 128.647637 
L 225.209874 116.007092 
L 219.831959 116.861211 
z
" clip-path="url(#p73a3464439)" style="fill-opacity: 0.4"/>
    <path d="M 115.758531 189.383211 
L 120.939168 188.684212 
L 130.440114 175.680434 
L 125.269903 176.403727 
z
" clip-path="url(#p73a3464439)" style="fill-opacity: 0.4"/>
    <path d="M 236.036921 114.287546 
L 241.486368 113.422067 
L 250.263031 100.866741 
L 244.827227 101.754538 
z
" clip-path="url(#p73a3464439)" style="fill-opacity: 0.4"/>
    <path d="M 140.849004 174.224269 
L 146.087985 173.491355 
L 155.441961 160.5724 
L 150.214087 161.329231 
z
" clip-path="url(#p73a3464439)" style="fill-opacity: 0.4"/>
    <path d="M 165.966979 159.048711 
L 171.264429 158.281808 
L 180.471108 145.44787 
L 175.185447 146.238311 
z
" clip-path="url(#p73a3464439)" style="fill-opacity: 0.4"/>
    <path d="M 70.724233 219.019968 
L 75.810975 218.385782 
L 85.595632 205.187797 
L 80.518138 205.847121 
z
" clip-path="url(#p73a3464439)" style="fill-opacity: 0.4"/>
    <path d="M 191.112501 143.856509 
L 196.468544 143.055543 
L 205.527598 130.306816 
L 200.184028 131.13094 
z
" clip-path="url(#p73a3464439)" style="fill-opacity: 0.4"/>
    <path d="M 95.817933 203.860407 
L 100.963038 203.192303 
L 110.600698 190.079134 
L 105.465521 190.771999 
z
" clip-path="url(#p73a3464439)" style="fill-opacity: 0.4"/>
    <path d="M 216.285616 128.647637 
L 221.700378 127.812534 
L 230.611476 115.149213 
L 225.209874 116.007092 
z
" clip-path="url(#p73a3464439)" style="fill-opacity: 0.4"/>
    <path d="M 120.939168 188.684212 
L 126.142763 187.982116 
L 135.633098 174.953955 
L 130.440114 175.680434 
z
" clip-path="url(#p73a3464439)" style="fill-opacity: 0.4"/>
    <path d="M 241.486368 113.422067 
L 246.959975 112.552751 
L 255.722788 99.975031 
L 250.263031 100.866741 
z
" clip-path="url(#p73a3464439)" style="fill-opacity: 0.4"/>
    <path d="M 146.087985 173.491355 
L 151.350195 172.755191 
L 160.692875 159.812234 
L 155.441961 160.5724 
z
" clip-path="url(#p73a3464439)" style="fill-opacity: 0.4"/>
    <path d="M 171.264429 158.281808 
L 176.585379 157.511502 
L 185.780074 144.653944 
L 180.471108 145.44787 
z
" clip-path="url(#p73a3464439)" style="fill-opacity: 0.4"/>
    <path d="M 75.810975 218.385782 
L 80.920282 217.748783 
L 90.695514 204.525565 
L 85.595632 205.187797 
z
" clip-path="url(#p73a3464439)" style="fill-opacity: 0.4"/>
    <path d="M 196.468544 143.055543 
L 201.848361 142.251022 
L 210.894741 129.479057 
L 205.527598 130.306816 
z
" clip-path="url(#p73a3464439)" style="fill-opacity: 0.4"/>
    <path d="M 100.963038 203.192303 
L 106.130981 202.521234 
L 115.758531 189.383211 
L 110.600698 190.079134 
z
" clip-path="url(#p73a3464439)" style="fill-opacity: 0.4"/>
    <path d="M 221.700378 127.812534 
L 227.139188 126.973721 
L 236.036921 114.287546 
L 230.611476 115.149213 
z
" clip-path="url(#p73a3464439)" style="fill-opacity: 0.4"/>
    <path d="M 126.142763 187.982116 
L 131.369468 187.276901 
L 140.849004 174.224269 
L 135.633098 174.953955 
z
" clip-path="url(#p73a3464439)" style="fill-opacity: 0.4"/>
    <path d="M 246.959975 112.552751 
L 252.457905 111.679573 
L 261.206659 99.079384 
L 255.722788 99.975031 
z
" clip-path="url(#p73a3464439)" style="fill-opacity: 0.4"/>
    <path d="M 151.350195 172.755191 
L 156.635787 172.015756 
L 165.966979 159.048711 
L 160.692875 159.812234 
z
" clip-path="url(#p73a3464439)" style="fill-opacity: 0.4"/>
    <path d="M 176.585379 157.511502 
L 181.929986 156.737773 
L 191.112501 143.856509 
L 185.780074 144.653944 
z
" clip-path="url(#p73a3464439)" style="fill-opacity: 0.4"/>
    <path d="M 80.920282 217.748783 
L 86.052306 217.108952 
L 95.817933 203.860407 
L 90.695514 204.525565 
z
" clip-path="url(#p73a3464439)" style="fill-opacity: 0.4"/>
    <path d="M 201.848361 142.251022 
L 207.25211 141.442921 
L 216.285616 128.647637 
L 210.894741 129.479057 
z
" clip-path="url(#p73a3464439)" style="fill-opacity: 0.4"/>
    <path d="M 106.130981 202.521234 
L 111.321915 201.847179 
L 120.939168 188.684212 
L 115.758531 189.383211 
z
" clip-path="url(#p73a3464439)" style="fill-opacity: 0.4"/>
    <path d="M 227.139188 126.973721 
L 232.602206 126.131175 
L 241.486368 113.422067 
L 236.036921 114.287546 
z
" clip-path="url(#p73a3464439)" style="fill-opacity: 0.4"/>
    <path d="M 131.369468 187.276901 
L 136.619437 186.568547 
L 146.087985 173.491355 
L 140.849004 174.224269 
z
" clip-path="url(#p73a3464439)" style="fill-opacity: 0.4"/>
    <path d="M 252.457905 111.679573 
L 257.98032 110.802505 
L 266.714803 98.179772 
L 261.206659 99.079384 
z
" clip-path="url(#p73a3464439)" style="fill-opacity: 0.4"/>
    <path d="M 156.635787 172.015756 
L 161.944919 171.273028 
L 171.264429 158.281808 
L 165.966979 159.048711 
z
" clip-path="url(#p73a3464439)" style="fill-opacity: 0.4"/>
    <path d="M 60.810566 232.353894 
L 65.906402 231.745514 
L 75.810975 218.385782 
L 70.724233 219.019968 
z
" clip-path="url(#p73a3464439)" style="fill-opacity: 0.4"/>
    <path d="M 181.929986 156.737773 
L 187.298409 155.960595 
L 196.468544 143.055543 
L 191.112501 143.856509 
z
" clip-path="url(#p73a3464439)" style="fill-opacity: 0.4"/>
    <path d="M 86.052306 217.108952 
L 91.207199 216.46627 
L 100.963038 203.192303 
L 95.817933 203.860407 
z
" clip-path="url(#p73a3464439)" style="fill-opacity: 0.4"/>
    <path d="M 207.25211 141.442921 
L 212.679951 140.631218 
L 221.700378 127.812534 
L 216.285616 128.647637 
z
" clip-path="url(#p73a3464439)" style="fill-opacity: 0.4"/>
    <path d="M 111.321915 201.847179 
L 116.535991 201.170119 
L 126.142763 187.982116 
L 120.939168 188.684212 
z
" clip-path="url(#p73a3464439)" style="fill-opacity: 0.4"/>
    <path d="M 232.602206 126.131175 
L 238.089594 125.284871 
L 246.959975 112.552751 
L 241.486368 113.422067 
z
" clip-path="url(#p73a3464439)" style="fill-opacity: 0.4"/>
    <path d="M 136.619437 186.568547 
L 141.892826 185.857034 
L 151.350195 172.755191 
L 146.087985 173.491355 
z
" clip-path="url(#p73a3464439)" style="fill-opacity: 0.4"/>
    <path d="M 257.98032 110.802505 
L 263.527383 109.921524 
L 272.247382 97.276169 
L 266.714803 98.179772 
z
" clip-path="url(#p73a3464439)" style="fill-opacity: 0.4"/>
    <path d="M 161.944919 171.273028 
L 167.277748 170.526985 
L 176.585379 157.511502 
L 171.264429 158.281808 
z
" clip-path="url(#p73a3464439)" style="fill-opacity: 0.4"/>
    <path d="M 65.906402 231.745514 
L 71.024983 231.134419 
L 80.920282 217.748783 
L 75.810975 218.385782 
z
" clip-path="url(#p73a3464439)" style="fill-opacity: 0.4"/>
    <path d="M 187.298409 155.960595 
L 192.690806 155.179946 
L 201.848361 142.251022 
L 196.468544 143.055543 
z
" clip-path="url(#p73a3464439)" style="fill-opacity: 0.4"/>
    <path d="M 91.207199 216.46627 
L 96.385113 215.820717 
L 106.130981 202.521234 
L 100.963038 203.192303 
z
" clip-path="url(#p73a3464439)" style="fill-opacity: 0.4"/>
    <path d="M 212.679951 140.631218 
L 218.132046 139.815888 
L 227.139188 126.973721 
L 221.700378 127.812534 
z
" clip-path="url(#p73a3464439)" style="fill-opacity: 0.4"/>
    <path d="M 116.535991 201.170119 
L 121.773367 200.490034 
L 131.369468 187.276901 
L 126.142763 187.982116 
z
" clip-path="url(#p73a3464439)" style="fill-opacity: 0.4"/>
    <path d="M 238.089594 125.284871 
L 243.601515 124.434782 
L 252.457905 111.679573 
L 246.959975 112.552751 
z
" clip-path="url(#p73a3464439)" style="fill-opacity: 0.4"/>
    <path d="M 141.892826 185.857034 
L 147.189792 185.142339 
L 156.635787 172.015756 
L 151.350195 172.755191 
z
" clip-path="url(#p73a3464439)" style="fill-opacity: 0.4"/>
    <path d="M 263.527383 109.921524 
L 269.09926 109.036601 
L 277.804559 96.368549 
L 272.247382 97.276169 
z
" clip-path="url(#p73a3464439)" style="fill-opacity: 0.4"/>
    <path d="M 167.277748 170.526985 
L 172.634434 169.777605 
L 181.929986 156.737773 
L 176.585379 157.511502 
z
" clip-path="url(#p73a3464439)" style="fill-opacity: 0.4"/>
    <path d="M 71.024983 231.134419 
L 76.166462 230.52059 
L 86.052306 217.108952 
L 80.920282 217.748783 
z
" clip-path="url(#p73a3464439)" style="fill-opacity: 0.4"/>
    <path d="M 192.690806 155.179946 
L 198.10734 154.395804 
L 207.25211 141.442921 
L 201.848361 142.251022 
z
" clip-path="url(#p73a3464439)" style="fill-opacity: 0.4"/>
    <path d="M 96.385113 215.820717 
L 101.586204 215.172276 
L 111.321915 201.847179 
L 106.130981 202.521234 
z
" clip-path="url(#p73a3464439)" style="fill-opacity: 0.4"/>
    <path d="M 218.132046 139.815888 
L 223.608558 138.996907 
L 232.602206 126.131175 
L 227.139188 126.973721 
z
" clip-path="url(#p73a3464439)" style="fill-opacity: 0.4"/>
    <path d="M 121.773367 200.490034 
L 127.034199 199.806902 
L 136.619437 186.568547 
L 131.369468 187.276901 
z
" clip-path="url(#p73a3464439)" style="fill-opacity: 0.4"/>
    <path d="M 243.601515 124.434782 
L 249.138135 123.580885 
L 257.98032 110.802505 
L 252.457905 111.679573 
z
" clip-path="url(#p73a3464439)" style="fill-opacity: 0.4"/>
    <path d="M 147.189792 185.142339 
L 152.510493 184.424442 
L 161.944919 171.273028 
L 156.635787 172.015756 
z
" clip-path="url(#p73a3464439)" style="fill-opacity: 0.4"/>
    <path d="M 50.774927 245.851874 
L 55.879696 245.269985 
L 65.906402 231.745514 
L 60.810566 232.353894 
z
" clip-path="url(#p73a3464439)" style="fill-opacity: 0.4"/>
    <path d="M 269.09926 109.036601 
L 274.696118 108.14771 
L 283.386498 95.456885 
L 277.804559 96.368549 
z
" clip-path="url(#p73a3464439)" style="fill-opacity: 0.4"/>
    <path d="M 172.634434 169.777605 
L 178.015135 169.024865 
L 187.298409 155.960595 
L 181.929986 156.737773 
z
" clip-path="url(#p73a3464439)" style="fill-opacity: 0.4"/>
    <path d="M 76.166462 230.52059 
L 81.330994 229.904009 
L 91.207199 216.46627 
L 86.052306 217.108952 
z
" clip-path="url(#p73a3464439)" style="fill-opacity: 0.4"/>
    <path d="M 198.10734 154.395804 
L 203.548172 153.608144 
L 212.679951 140.631218 
L 207.25211 141.442921 
z
" clip-path="url(#p73a3464439)" style="fill-opacity: 0.4"/>
    <path d="M 101.586204 215.172276 
L 106.810627 214.520925 
L 116.535991 201.170119 
L 111.321915 201.847179 
z
" clip-path="url(#p73a3464439)" style="fill-opacity: 0.4"/>
    <path d="M 223.608558 138.996907 
L 229.10965 138.174249 
L 238.089594 125.284871 
L 232.602206 126.131175 
z
" clip-path="url(#p73a3464439)" style="fill-opacity: 0.4"/>
    <path d="M 127.034199 199.806902 
L 132.318643 199.120705 
L 141.892826 185.857034 
L 136.619437 186.568547 
z
" clip-path="url(#p73a3464439)" style="fill-opacity: 0.4"/>
    <path d="M 249.138135 123.580885 
L 254.699619 122.723153 
L 263.527383 109.921524 
L 257.98032 110.802505 
z
" clip-path="url(#p73a3464439)" style="fill-opacity: 0.4"/>
    <path d="M 152.510493 184.424442 
L 157.85509 183.70332 
L 167.277748 170.526985 
L 161.944919 171.273028 
z
" clip-path="url(#p73a3464439)" style="fill-opacity: 0.4"/>
    <path d="M 55.879696 245.269985 
L 61.007391 244.685484 
L 71.024983 231.134419 
L 65.906402 231.745514 
z
" clip-path="url(#p73a3464439)" style="fill-opacity: 0.4"/>
    <path d="M 274.696118 108.14771 
L 280.318125 107.254826 
L 288.993365 94.541149 
L 283.386498 95.456885 
z
" clip-path="url(#p73a3464439)" style="fill-opacity: 0.4"/>
    <path d="M 178.015135 169.024865 
L 183.420015 168.268742 
L 192.690806 155.179946 
L 187.298409 155.960595 
z
" clip-path="url(#p73a3464439)" style="fill-opacity: 0.4"/>
    <path d="M 81.330994 229.904009 
L 86.518732 229.284657 
L 96.385113 215.820717 
L 91.207199 216.46627 
z
" clip-path="url(#p73a3464439)" style="fill-opacity: 0.4"/>
    <path d="M 203.548172 153.608144 
L 209.013466 152.816942 
L 218.132046 139.815888 
L 212.679951 140.631218 
z
" clip-path="url(#p73a3464439)" style="fill-opacity: 0.4"/>
    <path d="M 106.810627 214.520925 
L 112.058539 213.866645 
L 121.773367 200.490034 
L 116.535991 201.170119 
z
" clip-path="url(#p73a3464439)" style="fill-opacity: 0.4"/>
    <path d="M 229.10965 138.174249 
L 234.63549 137.347891 
L 243.601515 124.434782 
L 238.089594 125.284871 
z
" clip-path="url(#p73a3464439)" style="fill-opacity: 0.4"/>
    <path d="M 132.318643 199.120705 
L 137.62686 198.43142 
L 147.189792 185.142339 
L 141.892826 185.857034 
z
" clip-path="url(#p73a3464439)" style="fill-opacity: 0.4"/>
    <path d="M 254.699619 122.723153 
L 260.286136 121.86156 
L 269.09926 109.036601 
L 263.527383 109.921524 
z
" clip-path="url(#p73a3464439)" style="fill-opacity: 0.4"/>
    <path d="M 157.85509 183.70332 
L 163.223744 182.978953 
L 172.634434 169.777605 
L 167.277748 170.526985 
z
" clip-path="url(#p73a3464439)" style="fill-opacity: 0.4"/>
    <path d="M 61.007391 244.685484 
L 66.158168 244.098351 
L 76.166462 230.52059 
L 71.024983 231.134419 
z
" clip-path="url(#p73a3464439)" style="fill-opacity: 0.4"/>
    <path d="M 280.318125 107.254826 
L 285.965451 106.35792 
L 294.625327 93.621314 
L 288.993365 94.541149 
z
" clip-path="url(#p73a3464439)" style="fill-opacity: 0.4"/>
    <path d="M 183.420015 168.268742 
L 188.849237 167.509214 
L 198.10734 154.395804 
L 192.690806 155.179946 
z
" clip-path="url(#p73a3464439)" style="fill-opacity: 0.4"/>
    <path d="M 86.518732 229.284657 
L 91.729835 228.662516 
L 101.586204 215.172276 
L 96.385113 215.820717 
z
" clip-path="url(#p73a3464439)" style="fill-opacity: 0.4"/>
    <path d="M 209.013466 152.816942 
L 214.503387 152.022175 
L 223.608558 138.996907 
L 218.132046 139.815888 
z
" clip-path="url(#p73a3464439)" style="fill-opacity: 0.4"/>
    <path d="M 112.058539 213.866645 
L 117.3301 213.209418 
L 127.034199 199.806902 
L 121.773367 200.490034 
z
" clip-path="url(#p73a3464439)" style="fill-opacity: 0.4"/>
    <path d="M 234.63549 137.347891 
L 240.186244 136.517807 
L 249.138135 123.580885 
L 243.601515 124.434782 
z
" clip-path="url(#p73a3464439)" style="fill-opacity: 0.4"/>
    <path d="M 137.62686 198.43142 
L 142.959011 197.739028 
L 152.510493 184.424442 
L 147.189792 185.142339 
z
" clip-path="url(#p73a3464439)" style="fill-opacity: 0.4"/>
    <path d="M 260.286136 121.86156 
L 265.897854 120.99608 
L 274.696118 108.14771 
L 269.09926 109.036601 
z
" clip-path="url(#p73a3464439)" style="fill-opacity: 0.4"/>
    <path d="M 163.223744 182.978953 
L 168.616617 182.251318 
L 178.015135 169.024865 
L 172.634434 169.777605 
z
" clip-path="url(#p73a3464439)" style="fill-opacity: 0.4"/>
    <path d="M 66.158168 244.098351 
L 71.332181 243.50857 
L 81.330994 229.904009 
L 76.166462 230.52059 
z
" clip-path="url(#p73a3464439)" style="fill-opacity: 0.4"/>
    <path d="M 285.965451 106.35792 
L 291.638267 105.456966 
L 300.282554 92.697354 
L 294.625327 93.621314 
z
" clip-path="url(#p73a3464439)" style="fill-opacity: 0.4"/>
    <path d="M 188.849237 167.509214 
L 194.302965 166.746258 
L 203.548172 153.608144 
L 198.10734 154.395804 
z
" clip-path="url(#p73a3464439)" style="fill-opacity: 0.4"/>
    <path d="M 91.729835 228.662516 
L 96.96446 228.037566 
L 106.810627 214.520925 
L 101.586204 215.172276 
z
" clip-path="url(#p73a3464439)" style="fill-opacity: 0.4"/>
    <path d="M 214.503387 152.022175 
L 220.018103 151.223819 
L 229.10965 138.174249 
L 223.608558 138.996907 
z
" clip-path="url(#p73a3464439)" style="fill-opacity: 0.4"/>
    <path d="M 117.3301 213.209418 
L 122.625469 212.549222 
L 132.318643 199.120705 
L 127.034199 199.806902 
z
" clip-path="url(#p73a3464439)" style="fill-opacity: 0.4"/>
    <path d="M 240.186244 136.517807 
L 245.762081 135.683972 
L 254.699619 122.723153 
L 249.138135 123.580885 
z
" clip-path="url(#p73a3464439)" style="fill-opacity: 0.4"/>
    <path d="M 142.959011 197.739028 
L 148.315258 197.043507 
L 157.85509 183.70332 
L 152.510493 184.424442 
z
" clip-path="url(#p73a3464439)" style="fill-opacity: 0.4"/>
    <path d="M 265.897854 120.99608 
L 271.534946 120.126687 
L 280.318125 107.254826 
L 274.696118 108.14771 
z
" clip-path="url(#p73a3464439)" style="fill-opacity: 0.4"/>
    <path d="M 168.616617 182.251318 
L 174.033874 181.520393 
L 183.420015 168.268742 
L 178.015135 169.024865 
z
" clip-path="url(#p73a3464439)" style="fill-opacity: 0.4"/>
    <path d="M 71.332181 243.50857 
L 76.529588 242.916122 
L 86.518732 229.284657 
L 81.330994 229.904009 
z
" clip-path="url(#p73a3464439)" style="fill-opacity: 0.4"/>
    <path d="M 291.638267 105.456966 
L 297.336748 104.551936 
L 305.965215 91.769239 
L 300.282554 92.697354 
z
" clip-path="url(#p73a3464439)" style="fill-opacity: 0.4"/>
    <path d="M 194.302965 166.746258 
L 199.781365 165.97985 
L 209.013466 152.816942 
L 203.548172 153.608144 
z
" clip-path="url(#p73a3464439)" style="fill-opacity: 0.4"/>
    <path d="M 96.96446 228.037566 
L 102.222766 227.409789 
L 112.058539 213.866645 
L 106.810627 214.520925 
z
" clip-path="url(#p73a3464439)" style="fill-opacity: 0.4"/>
    <path d="M 220.018103 151.223819 
L 225.557782 150.421849 
L 234.63549 137.347891 
L 229.10965 138.174249 
z
" clip-path="url(#p73a3464439)" style="fill-opacity: 0.4"/>
    <path d="M 122.625469 212.549222 
L 127.944809 211.886037 
L 137.62686 198.43142 
L 132.318643 199.120705 
z
" clip-path="url(#p73a3464439)" style="fill-opacity: 0.4"/>
    <path d="M 245.762081 135.683972 
L 251.363171 134.84636 
L 260.286136 121.86156 
L 254.699619 122.723153 
z
" clip-path="url(#p73a3464439)" style="fill-opacity: 0.4"/>
    <path d="M 148.315258 197.043507 
L 153.695764 196.344836 
L 163.223744 182.978953 
L 157.85509 183.70332 
z
" clip-path="url(#p73a3464439)" style="fill-opacity: 0.4"/>
    <path d="M 271.534946 120.126687 
L 277.197583 119.253355 
L 285.965451 106.35792 
L 280.318125 107.254826 
z
" clip-path="url(#p73a3464439)" style="fill-opacity: 0.4"/>
    <path d="M 174.033874 181.520393 
L 179.47568 180.786155 
L 188.849237 167.509214 
L 183.420015 168.268742 
z
" clip-path="url(#p73a3464439)" style="fill-opacity: 0.4"/>
    <path d="M 76.529588 242.916122 
L 81.750549 242.320989 
L 91.729835 228.662516 
L 86.518732 229.284657 
z
" clip-path="url(#p73a3464439)" style="fill-opacity: 0.4"/>
    <path d="M 199.781365 165.97985 
L 205.284607 165.209967 
L 214.503387 152.022175 
L 209.013466 152.816942 
z
" clip-path="url(#p73a3464439)" style="fill-opacity: 0.4"/>
    <path d="M 102.222766 227.409789 
L 107.504916 226.779166 
L 117.3301 213.209418 
L 112.058539 213.866645 
z
" clip-path="url(#p73a3464439)" style="fill-opacity: 0.4"/>
    <path d="M 225.557782 150.421849 
L 231.122593 149.61624 
L 240.186244 136.517807 
L 234.63549 137.347891 
z
" clip-path="url(#p73a3464439)" style="fill-opacity: 0.4"/>
    <path d="M 127.944809 211.886037 
L 133.288281 211.219844 
L 142.959011 197.739028 
L 137.62686 198.43142 
z
" clip-path="url(#p73a3464439)" style="fill-opacity: 0.4"/>
    <path d="M 251.363171 134.84636 
L 256.989687 134.004946 
L 265.897854 120.99608 
L 260.286136 121.86156 
z
" clip-path="url(#p73a3464439)" style="fill-opacity: 0.4"/>
    <path d="M 153.695764 196.344836 
L 159.100694 195.642993 
L 168.616617 182.251318 
L 163.223744 182.978953 
z
" clip-path="url(#p73a3464439)" style="fill-opacity: 0.4"/>
    <path d="M 277.197583 119.253355 
L 282.885939 118.376055 
L 291.638267 105.456966 
L 285.965451 106.35792 
z
" clip-path="url(#p73a3464439)" style="fill-opacity: 0.4"/>
    <path d="M 179.47568 180.786155 
L 184.942203 180.048583 
L 194.302965 166.746258 
L 188.849237 167.509214 
z
" clip-path="url(#p73a3464439)" style="fill-opacity: 0.4"/>
    <path d="M 81.750549 242.320989 
L 86.995225 241.723153 
L 96.96446 228.037566 
L 91.729835 228.662516 
z
" clip-path="url(#p73a3464439)" style="fill-opacity: 0.4"/>
    <path d="M 205.284607 165.209967 
L 210.812858 164.436585 
L 220.018103 151.223819 
L 214.503387 152.022175 
z
" clip-path="url(#p73a3464439)" style="fill-opacity: 0.4"/>
    <path d="M 107.504916 226.779166 
L 112.811072 226.145677 
L 122.625469 212.549222 
L 117.3301 213.209418 
z
" clip-path="url(#p73a3464439)" style="fill-opacity: 0.4"/>
    <path d="M 231.122593 149.61624 
L 236.712708 148.806969 
L 245.762081 135.683972 
L 240.186244 136.517807 
z
" clip-path="url(#p73a3464439)" style="fill-opacity: 0.4"/>
    <path d="M 133.288281 211.219844 
L 138.656052 210.550621 
L 148.315258 197.043507 
L 142.959011 197.739028 
z
" clip-path="url(#p73a3464439)" style="fill-opacity: 0.4"/>
    <path d="M 256.989687 134.004946 
L 262.641802 133.159704 
L 271.534946 120.126687 
L 265.897854 120.99608 
z
" clip-path="url(#p73a3464439)" style="fill-opacity: 0.4"/>
    <path d="M 159.100694 195.642993 
L 164.530216 194.937957 
L 174.033874 181.520393 
L 168.616617 182.251318 
z
" clip-path="url(#p73a3464439)" style="fill-opacity: 0.4"/>
    <path d="M 282.885939 118.376055 
L 288.60019 117.494762 
L 297.336748 104.551936 
L 291.638267 105.456966 
z
" clip-path="url(#p73a3464439)" style="fill-opacity: 0.4"/>
    <path d="M 184.942203 180.048583 
L 190.433612 179.307653 
L 199.781365 165.97985 
L 194.302965 166.746258 
z
" clip-path="url(#p73a3464439)" style="fill-opacity: 0.4"/>
    <path d="M 86.995225 241.723153 
L 92.263776 241.122595 
L 102.222766 227.409789 
L 96.96446 228.037566 
z
" clip-path="url(#p73a3464439)" style="fill-opacity: 0.4"/>
    <path d="M 210.812858 164.436585 
L 216.36629 163.65968 
L 225.557782 150.421849 
L 220.018103 151.223819 
z
" clip-path="url(#p73a3464439)" style="fill-opacity: 0.4"/>
    <path d="M 112.811072 226.145677 
L 118.141397 225.509302 
L 127.944809 211.886037 
L 122.625469 212.549222 
z
" clip-path="url(#p73a3464439)" style="fill-opacity: 0.4"/>
    <path d="M 236.712708 148.806969 
L 242.3283 147.994009 
L 251.363171 134.84636 
L 245.762081 135.683972 
z
" clip-path="url(#p73a3464439)" style="fill-opacity: 0.4"/>
    <path d="M 138.656052 210.550621 
L 144.048287 209.878349 
L 153.695764 196.344836 
L 148.315258 197.043507 
z
" clip-path="url(#p73a3464439)" style="fill-opacity: 0.4"/>
    <path d="M 262.641802 133.159704 
L 268.319691 132.310608 
L 277.197583 119.253355 
L 271.534946 120.126687 
z
" clip-path="url(#p73a3464439)" style="fill-opacity: 0.4"/>
    <path d="M 164.530216 194.937957 
L 169.984497 194.229706 
L 179.47568 180.786155 
L 174.033874 181.520393 
z
" clip-path="url(#p73a3464439)" style="fill-opacity: 0.4"/>
    <path d="M 190.433612 179.307653 
L 195.950076 178.563342 
L 205.284607 165.209967 
L 199.781365 165.97985 
z
" clip-path="url(#p73a3464439)" style="fill-opacity: 0.4"/>
    <path d="M 92.263776 241.122595 
L 97.556367 240.519297 
L 107.504916 226.779166 
L 102.222766 227.409789 
z
" clip-path="url(#p73a3464439)" style="fill-opacity: 0.4"/>
    <path d="M 216.36629 163.65968 
L 221.945075 162.879229 
L 231.122593 149.61624 
L 225.557782 150.421849 
z
" clip-path="url(#p73a3464439)" style="fill-opacity: 0.4"/>
    <path d="M 118.141397 225.509302 
L 123.496057 224.870022 
L 133.288281 211.219844 
L 127.944809 211.886037 
z
" clip-path="url(#p73a3464439)" style="fill-opacity: 0.4"/>
    <path d="M 242.3283 147.994009 
L 247.969543 147.177335 
L 256.989687 134.004946 
L 251.363171 134.84636 
z
" clip-path="url(#p73a3464439)" style="fill-opacity: 0.4"/>
    <path d="M 144.048287 209.878349 
L 149.465153 209.203005 
L 159.100694 195.642993 
L 153.695764 196.344836 
z
" clip-path="url(#p73a3464439)" style="fill-opacity: 0.4"/>
    <path d="M 268.319691 132.310608 
L 274.023531 131.457631 
L 282.885939 118.376055 
L 277.197583 119.253355 
z
" clip-path="url(#p73a3464439)" style="fill-opacity: 0.4"/>
    <path d="M 169.984497 194.229706 
L 175.463707 193.518217 
L 184.942203 180.048583 
L 179.47568 180.786155 
z
" clip-path="url(#p73a3464439)" style="fill-opacity: 0.4"/>
    <path d="M 195.950076 178.563342 
L 201.491769 177.815628 
L 210.812858 164.436585 
L 205.284607 165.209967 
z
" clip-path="url(#p73a3464439)" style="fill-opacity: 0.4"/>
    <path d="M 97.556367 240.519297 
L 102.873162 239.91324 
L 112.811072 226.145677 
L 107.504916 226.779166 
z
" clip-path="url(#p73a3464439)" style="fill-opacity: 0.4"/>
    <path d="M 221.945075 162.879229 
L 227.549388 162.095207 
L 236.712708 148.806969 
L 231.122593 149.61624 
z
" clip-path="url(#p73a3464439)" style="fill-opacity: 0.4"/>
    <path d="M 123.496057 224.870022 
L 128.875219 224.227816 
L 138.656052 210.550621 
L 133.288281 211.219844 
z
" clip-path="url(#p73a3464439)" style="fill-opacity: 0.4"/>
    <path d="M 247.969543 147.177335 
L 253.636615 146.356923 
L 262.641802 133.159704 
L 256.989687 134.004946 
z
" clip-path="url(#p73a3464439)" style="fill-opacity: 0.4"/>
    <path d="M 149.465153 209.203005 
L 154.906821 208.52457 
L 164.530216 194.937957 
L 159.100694 195.642993 
z
" clip-path="url(#p73a3464439)" style="fill-opacity: 0.4"/>
    <path d="M 274.023531 131.457631 
L 279.7535 130.600746 
L 288.60019 117.494762 
L 282.885939 118.376055 
z
" clip-path="url(#p73a3464439)" style="fill-opacity: 0.4"/>
    <path d="M 175.463707 193.518217 
L 180.968018 192.80347 
L 190.433612 179.307653 
L 184.942203 180.048583 
z
" clip-path="url(#p73a3464439)" style="fill-opacity: 0.4"/>
    <path d="M 201.491769 177.815628 
L 207.058862 177.064486 
L 216.36629 163.65968 
L 210.812858 164.436585 
z
" clip-path="url(#p73a3464439)" style="fill-opacity: 0.4"/>
    <path d="M 102.873162 239.91324 
L 108.214328 239.304405 
L 118.141397 225.509302 
L 112.811072 226.145677 
z
" clip-path="url(#p73a3464439)" style="fill-opacity: 0.4"/>
    <path d="M 227.549388 162.095207 
L 233.179403 161.307588 
L 242.3283 147.994009 
L 236.712708 148.806969 
z
" clip-path="url(#p73a3464439)" style="fill-opacity: 0.4"/>
    <path d="M 128.875219 224.227816 
L 134.279052 223.582665 
L 144.048287 209.878349 
L 138.656052 210.550621 
z
" clip-path="url(#p73a3464439)" style="fill-opacity: 0.4"/>
    <path d="M 253.636615 146.356923 
L 259.329691 145.532745 
L 268.319691 132.310608 
L 262.641802 133.159704 
z
" clip-path="url(#p73a3464439)" style="fill-opacity: 0.4"/>
    <path d="M 154.906821 208.52457 
L 160.373459 207.843021 
L 169.984497 194.229706 
L 164.530216 194.937957 
z
" clip-path="url(#p73a3464439)" style="fill-opacity: 0.4"/>
    <path d="M 180.968018 192.80347 
L 186.497603 192.08544 
L 195.950076 178.563342 
L 190.433612 179.307653 
z
" clip-path="url(#p73a3464439)" style="fill-opacity: 0.4"/>
    <path d="M 207.058862 177.064486 
L 212.651532 176.309893 
L 221.945075 162.879229 
L 216.36629 163.65968 
z
" clip-path="url(#p73a3464439)" style="fill-opacity: 0.4"/>
    <path d="M 108.214328 239.304405 
L 113.580033 238.692773 
L 123.496057 224.870022 
L 118.141397 225.509302 
z
" clip-path="url(#p73a3464439)" style="fill-opacity: 0.4"/>
    <path d="M 233.179403 161.307588 
L 238.835298 160.516349 
L 247.969543 147.177335 
L 242.3283 147.994009 
z
" clip-path="url(#p73a3464439)" style="fill-opacity: 0.4"/>
    <path d="M 134.279052 223.582665 
L 139.707725 222.934549 
L 149.465153 209.203005 
L 144.048287 209.878349 
z
" clip-path="url(#p73a3464439)" style="fill-opacity: 0.4"/>
    <path d="M 259.329691 145.532745 
L 265.048953 144.704777 
L 274.023531 131.457631 
L 268.319691 132.310608 
z
" clip-path="url(#p73a3464439)" style="fill-opacity: 0.4"/>
    <path d="M 160.373459 207.843021 
L 165.865242 207.158337 
L 175.463707 193.518217 
L 169.984497 194.229706 
z
" clip-path="url(#p73a3464439)" style="fill-opacity: 0.4"/>
    <path d="M 186.497603 192.08544 
L 192.052635 191.364106 
L 201.491769 177.815628 
L 195.950076 178.563342 
z
" clip-path="url(#p73a3464439)" style="fill-opacity: 0.4"/>
    <path d="M 212.651532 176.309893 
L 218.269955 175.551826 
L 227.549388 162.095207 
L 221.945075 162.879229 
z
" clip-path="url(#p73a3464439)" style="fill-opacity: 0.4"/>
    <path d="M 113.580033 238.692773 
L 118.970446 238.078324 
L 128.875219 224.227816 
L 123.496057 224.870022 
z
" clip-path="url(#p73a3464439)" style="fill-opacity: 0.4"/>
    <path d="M 238.835298 160.516349 
L 244.517253 159.721465 
L 253.636615 146.356923 
L 247.969543 147.177335 
z
" clip-path="url(#p73a3464439)" style="fill-opacity: 0.4"/>
    <path d="M 139.707725 222.934549 
L 145.161411 222.283446 
L 154.906821 208.52457 
L 149.465153 209.203005 
z
" clip-path="url(#p73a3464439)" style="fill-opacity: 0.4"/>
    <path d="M 265.048953 144.704777 
L 270.794581 143.872992 
L 279.7535 130.600746 
L 274.023531 131.457631 
z
" clip-path="url(#p73a3464439)" style="fill-opacity: 0.4"/>
    <path d="M 165.865242 207.158337 
L 171.382343 206.470497 
L 180.968018 192.80347 
L 175.463707 193.518217 
z
" clip-path="url(#p73a3464439)" style="fill-opacity: 0.4"/>
    <path d="M 192.052635 191.364106 
L 197.633291 190.639445 
L 207.058862 177.064486 
L 201.491769 177.815628 
z
" clip-path="url(#p73a3464439)" style="fill-opacity: 0.4"/>
    <path d="M 218.269955 175.551826 
L 223.914309 174.79026 
L 233.179403 161.307588 
L 227.549388 162.095207 
z
" clip-path="url(#p73a3464439)" style="fill-opacity: 0.4"/>
    <path d="M 118.970446 238.078324 
L 124.385738 237.46104 
L 134.279052 223.582665 
L 128.875219 224.227816 
z
" clip-path="url(#p73a3464439)" style="fill-opacity: 0.4"/>
    <path d="M 244.517253 159.721465 
L 250.225447 158.92291 
L 259.329691 145.532745 
L 253.636615 146.356923 
z
" clip-path="url(#p73a3464439)" style="fill-opacity: 0.4"/>
    <path d="M 145.161411 222.283446 
L 150.640283 221.629337 
L 160.373459 207.843021 
L 154.906821 208.52457 
z
" clip-path="url(#p73a3464439)" style="fill-opacity: 0.4"/>
    <path d="M 171.382343 206.470497 
L 176.924936 205.779478 
L 186.497603 192.08544 
L 180.968018 192.80347 
z
" clip-path="url(#p73a3464439)" style="fill-opacity: 0.4"/>
    <path d="M 197.633291 190.639445 
L 203.239749 189.911433 
L 212.651532 176.309893 
L 207.058862 177.064486 
z
" clip-path="url(#p73a3464439)" style="fill-opacity: 0.4"/>
    <path d="M 223.914309 174.79026 
L 229.584774 174.025171 
L 238.835298 160.516349 
L 233.179403 161.307588 
z
" clip-path="url(#p73a3464439)" style="fill-opacity: 0.4"/>
    <path d="M 124.385738 237.46104 
L 129.826082 236.8409 
L 139.707725 222.934549 
L 134.279052 223.582665 
z
" clip-path="url(#p73a3464439)" style="fill-opacity: 0.4"/>
    <path d="M 250.225447 158.92291 
L 255.960062 158.120658 
L 265.048953 144.704777 
L 259.329691 145.532745 
z
" clip-path="url(#p73a3464439)" style="fill-opacity: 0.4"/>
    <path d="M 150.640283 221.629337 
L 156.144515 220.9722 
L 165.865242 207.158337 
L 160.373459 207.843021 
z
" clip-path="url(#p73a3464439)" style="fill-opacity: 0.4"/>
    <path d="M 176.924936 205.779478 
L 182.4932 205.08526 
L 192.052635 191.364106 
L 186.497603 192.08544 
z
" clip-path="url(#p73a3464439)" style="fill-opacity: 0.4"/>
    <path d="M 203.239749 189.911433 
L 208.872188 189.180048 
L 218.269955 175.551826 
L 212.651532 176.309893 
z
" clip-path="url(#p73a3464439)" style="fill-opacity: 0.4"/>
    <path d="M 229.584774 174.025171 
L 235.281532 173.256534 
L 244.517253 159.721465 
L 238.835298 160.516349 
z
" clip-path="url(#p73a3464439)" style="fill-opacity: 0.4"/>
    <path d="M 129.826082 236.8409 
L 135.291652 236.217884 
L 145.161411 222.283446 
L 139.707725 222.934549 
z
" clip-path="url(#p73a3464439)" style="fill-opacity: 0.4"/>
    <path d="M 255.960062 158.120658 
L 261.721283 157.314685 
L 270.794581 143.872992 
L 265.048953 144.704777 
z
" clip-path="url(#p73a3464439)" style="fill-opacity: 0.4"/>
    <path d="M 156.144515 220.9722 
L 161.674285 220.312013 
L 171.382343 206.470497 
L 165.865242 207.158337 
z
" clip-path="url(#p73a3464439)" style="fill-opacity: 0.4"/>
    <path d="M 182.4932 205.08526 
L 188.087313 204.387818 
L 197.633291 190.639445 
L 192.052635 191.364106 
z
" clip-path="url(#p73a3464439)" style="fill-opacity: 0.4"/>
    <path d="M 208.872188 189.180048 
L 214.530789 188.445266 
L 223.914309 174.79026 
L 218.269955 175.551826 
z
" clip-path="url(#p73a3464439)" style="fill-opacity: 0.4"/>
    <path d="M 235.281532 173.256534 
L 241.004765 172.484325 
L 250.225447 158.92291 
L 244.517253 159.721465 
z
" clip-path="url(#p73a3464439)" style="fill-opacity: 0.4"/>
    <path d="M 135.291652 236.217884 
L 140.782624 235.591973 
L 150.640283 221.629337 
L 145.161411 222.283446 
z
" clip-path="url(#p73a3464439)" style="fill-opacity: 0.4"/>
    <path d="M 161.674285 220.312013 
L 167.229769 219.648757 
L 176.924936 205.779478 
L 171.382343 206.470497 
z
" clip-path="url(#p73a3464439)" style="fill-opacity: 0.4"/>
    <path d="M 188.087313 204.387818 
L 193.707455 203.687131 
L 203.239749 189.911433 
L 197.633291 190.639445 
z
" clip-path="url(#p73a3464439)" style="fill-opacity: 0.4"/>
    <path d="M 214.530789 188.445266 
L 220.215734 187.707062 
L 229.584774 174.025171 
L 223.914309 174.79026 
z
" clip-path="url(#p73a3464439)" style="fill-opacity: 0.4"/>
    <path d="M 241.004765 172.484325 
L 246.75466 171.708518 
L 255.960062 158.120658 
L 250.225447 158.92291 
z
" clip-path="url(#p73a3464439)" style="fill-opacity: 0.4"/>
    <path d="M 140.782624 235.591973 
L 146.299176 234.963146 
L 156.144515 220.9722 
L 150.640283 221.629337 
z
" clip-path="url(#p73a3464439)" style="fill-opacity: 0.4"/>
    <path d="M 167.229769 219.648757 
L 172.811149 218.98241 
L 182.4932 205.08526 
L 176.924936 205.779478 
z
" clip-path="url(#p73a3464439)" style="fill-opacity: 0.4"/>
    <path d="M 193.707455 203.687131 
L 199.353809 202.983176 
L 208.872188 189.180048 
L 203.239749 189.911433 
z
" clip-path="url(#p73a3464439)" style="fill-opacity: 0.4"/>
    <path d="M 220.215734 187.707062 
L 225.927209 186.965414 
L 235.281532 173.256534 
L 229.584774 174.025171 
z
" clip-path="url(#p73a3464439)" style="fill-opacity: 0.4"/>
    <path d="M 246.75466 171.708518 
L 252.531403 170.92909 
L 261.721283 157.314685 
L 255.960062 158.120658 
z
" clip-path="url(#p73a3464439)" style="fill-opacity: 0.4"/>
    <path d="M 146.299176 234.963146 
L 151.841486 234.331382 
L 161.674285 220.312013 
L 156.144515 220.9722 
z
" clip-path="url(#p73a3464439)" style="fill-opacity: 0.4"/>
    <path d="M 172.811149 218.98241 
L 178.418605 218.312949 
L 188.087313 204.387818 
L 182.4932 205.08526 
z
" clip-path="url(#p73a3464439)" style="fill-opacity: 0.4"/>
    <path d="M 199.353809 202.983176 
L 205.026558 202.275931 
L 214.530789 188.445266 
L 208.872188 189.180048 
z
" clip-path="url(#p73a3464439)" style="fill-opacity: 0.4"/>
    <path d="M 225.927209 186.965414 
L 231.665399 186.220296 
L 241.004765 172.484325 
L 235.281532 173.256534 
z
" clip-path="url(#p73a3464439)" style="fill-opacity: 0.4"/>
    <path d="M 151.841486 234.331382 
L 157.409736 233.696662 
L 167.229769 219.648757 
L 161.674285 220.312013 
z
" clip-path="url(#p73a3464439)" style="fill-opacity: 0.4"/>
    <path d="M 178.418605 218.312949 
L 184.052321 217.640353 
L 193.707455 203.687131 
L 188.087313 204.387818 
z
" clip-path="url(#p73a3464439)" style="fill-opacity: 0.4"/>
    <path d="M 205.026558 202.275931 
L 210.725889 201.565371 
L 220.215734 187.707062 
L 214.530789 188.445266 
z
" clip-path="url(#p73a3464439)" style="fill-opacity: 0.4"/>
    <path d="M 231.665399 186.220296 
L 237.430493 185.471686 
L 246.75466 171.708518 
L 241.004765 172.484325 
z
" clip-path="url(#p73a3464439)" style="fill-opacity: 0.4"/>
    <path d="M 157.409736 233.696662 
L 163.004108 233.058965 
L 172.811149 218.98241 
L 167.229769 219.648757 
z
" clip-path="url(#p73a3464439)" style="fill-opacity: 0.4"/>
    <path d="M 184.052321 217.640353 
L 189.712481 216.9646 
L 199.353809 202.983176 
L 193.707455 203.687131 
z
" clip-path="url(#p73a3464439)" style="fill-opacity: 0.4"/>
    <path d="M 210.725889 201.565371 
L 216.451987 200.851474 
L 225.927209 186.965414 
L 220.215734 187.707062 
z
" clip-path="url(#p73a3464439)" style="fill-opacity: 0.4"/>
    <path d="M 237.430493 185.471686 
L 243.222679 184.719557 
L 252.531403 170.92909 
L 246.75466 171.708518 
z
" clip-path="url(#p73a3464439)" style="fill-opacity: 0.4"/>
    <path d="M 163.004108 233.058965 
L 168.624786 232.418268 
L 178.418605 218.312949 
L 172.811149 218.98241 
z
" clip-path="url(#p73a3464439)" style="fill-opacity: 0.4"/>
    <path d="M 189.712481 216.9646 
L 195.399273 216.285667 
L 205.026558 202.275931 
L 199.353809 202.983176 
z
" clip-path="url(#p73a3464439)" style="fill-opacity: 0.4"/>
    <path d="M 216.451987 200.851474 
L 222.205042 200.134217 
L 231.665399 186.220296 
L 225.927209 186.965414 
z
" clip-path="url(#p73a3464439)" style="fill-opacity: 0.4"/>
    <path d="M 168.624786 232.418268 
L 174.271957 231.774552 
L 184.052321 217.640353 
L 178.418605 218.312949 
z
" clip-path="url(#p73a3464439)" style="fill-opacity: 0.4"/>
    <path d="M 195.399273 216.285667 
L 201.112884 215.603532 
L 210.725889 201.565371 
L 205.026558 202.275931 
z
" clip-path="url(#p73a3464439)" style="fill-opacity: 0.4"/>
    <path d="M 222.205042 200.134217 
L 227.985246 199.413575 
L 237.430493 185.471686 
L 231.665399 186.220296 
z
" clip-path="url(#p73a3464439)" style="fill-opacity: 0.4"/>
    <path d="M 174.271957 231.774552 
L 179.945807 231.127795 
L 189.712481 216.9646 
L 184.052321 217.640353 
z
" clip-path="url(#p73a3464439)" style="fill-opacity: 0.4"/>
    <path d="M 201.112884 215.603532 
L 206.853505 214.918173 
L 216.451987 200.851474 
L 210.725889 201.565371 
z
" clip-path="url(#p73a3464439)" style="fill-opacity: 0.4"/>
    <path d="M 227.985246 199.413575 
L 233.79279 198.689524 
L 243.222679 184.719557 
L 237.430493 185.471686 
z
" clip-path="url(#p73a3464439)" style="fill-opacity: 0.4"/>
    <path d="M 179.945807 231.127795 
L 185.646527 230.477975 
L 195.399273 216.285667 
L 189.712481 216.9646 
z
" clip-path="url(#p73a3464439)" style="fill-opacity: 0.4"/>
    <path d="M 206.853505 214.918173 
L 212.621328 214.229567 
L 222.205042 200.134217 
L 216.451987 200.851474 
z
" clip-path="url(#p73a3464439)" style="fill-opacity: 0.4"/>
    <path d="M 185.646527 230.477975 
L 191.374308 229.82507 
L 201.112884 215.603532 
L 195.399273 216.285667 
z
" clip-path="url(#p73a3464439)" style="fill-opacity: 0.4"/>
    <path d="M 212.621328 214.229567 
L 218.416546 213.537689 
L 227.985246 199.413575 
L 222.205042 200.134217 
z
" clip-path="url(#p73a3464439)" style="fill-opacity: 0.4"/>
    <path d="M 191.374308 229.82507 
L 197.129343 229.169058 
L 206.853505 214.918173 
L 201.112884 215.603532 
z
" clip-path="url(#p73a3464439)" style="fill-opacity: 0.4"/>
    <path d="M 218.416546 213.537689 
L 224.239355 212.842518 
L 233.79279 198.689524 
L 227.985246 199.413575 
z
" clip-path="url(#p73a3464439)" style="fill-opacity: 0.4"/>
    <path d="M 197.129343 229.169058 
L 202.911827 228.509918 
L 212.621328 214.229567 
L 206.853505 214.918173 
z
" clip-path="url(#p73a3464439)" style="fill-opacity: 0.4"/>
    <path d="M 202.911827 228.509918 
L 208.721957 227.847626 
L 218.416546 213.537689 
L 212.621328 214.229567 
z
" clip-path="url(#p73a3464439)" style="fill-opacity: 0.4"/>
    <path d="M 208.721957 227.847626 
L 214.559931 227.18216 
L 224.239355 212.842518 
L 218.416546 213.537689 
z
" clip-path="url(#p73a3464439)" style="fill-opacity: 0.4"/>
   </g>
  </g>
 </g>
 <defs>
  <clipPath id="p73a3464439">
   <rect x="7.2" y="7.2" width="332.64" height="332.64"/>
  </clipPath>
 </defs>
</svg>
